<?xml version="1.0" standalone="no"?>
<!DOCTYPE svg PUBLIC "-//W3C//DTD SVG 20010904//EN"
 "http://www.w3.org/TR/2001/REC-SVG-20010904/DTD/svg10.dtd">
<svg version="1.0" xmlns="http://www.w3.org/2000/svg"
 width="592.000000pt" height="421.000000pt" viewBox="0 0 592.000000 421.000000"
 preserveAspectRatio="xMidYMid meet">

<g transform="translate(0.000000,421.000000) scale(0.100000,-0.100000)"
fill="#000000" stroke="none">
<path d="M2680 4121 c0 -12 24 -39 39 -43 11 -3 10 -7 -4 -21 -13 -14 -20 -15
-31 -6 -12 10 -13 9 -8 -6 5 -11 1 -22 -8 -29 -8 -6 -20 -21 -27 -33 -16 -30
-37 -29 -54 3 -8 15 -17 23 -20 18 -3 -5 15 -61 39 -123 24 -63 42 -116 39
-119 -6 -7 -2 -12 -60 81 -44 69 -65 92 -65 69 0 -4 25 -47 55 -95 30 -47 55
-92 55 -98 0 -6 -11 -24 -24 -39 -17 -21 -26 -26 -35 -17 -8 8 -11 8 -11 0 0
-7 5 -15 11 -18 15 -10 -21 -33 -43 -27 -10 2 -18 8 -18 12 0 5 -9 12 -21 15
-11 4 -38 25 -60 47 -21 22 -39 36 -39 30 0 -5 15 -23 34 -40 19 -17 32 -33
29 -36 -4 -3 1 -6 11 -6 9 0 15 -4 12 -9 -3 -5 2 -15 11 -22 14 -12 16 -12 8
0 -5 10 -4 12 3 7 7 -4 12 -15 12 -25 0 -10 9 -21 21 -24 13 -3 19 -1 16 6 -3
7 -11 11 -18 9 -8 -1 -5 5 6 13 11 9 25 13 31 11 6 -2 17 7 23 21 9 21 14 23
26 13 18 -15 20 1 3 18 -9 9 -7 12 9 12 12 0 23 6 25 12 3 7 7 3 10 -9 4 -16
2 -20 -9 -16 -13 5 -13 3 -2 -16 15 -22 35 -30 24 -8 -4 6 1 3 9 -7 9 -11 16
-16 16 -10 0 5 7 -4 15 -20 8 -15 15 -34 15 -42 0 -8 6 -11 16 -7 9 3 13 12 9
21 -3 8 0 19 7 24 10 6 9 8 -3 8 -22 0 -29 19 -24 67 2 21 1 30 -2 20 -4 -18
-6 -17 -20 3 -12 16 -12 24 -3 36 10 11 16 12 28 2 13 -11 14 -10 3 10 -12 22
-11 23 7 13 15 -8 22 -8 25 2 3 8 10 6 20 -8 8 -11 19 -17 23 -12 4 4 2 7 -4
7 -7 0 -12 4 -12 10 0 5 7 7 15 4 8 -4 15 -1 15 6 0 8 10 11 27 7 18 -3 31 0
40 11 8 11 12 12 13 5 0 -7 7 -13 15 -13 8 0 12 -6 9 -14 -3 -8 0 -17 7 -22 8
-4 10 -3 5 4 -9 15 12 54 25 46 5 -3 7 -15 4 -27 -5 -20 -5 -20 8 2 8 13 17
19 20 14 4 -6 3 -13 0 -17 -4 -3 -7 -15 -8 -26 -1 -15 1 -17 12 -9 7 6 10 16
7 21 -4 6 2 8 15 3 15 -5 21 -2 21 10 0 9 3 14 8 11 9 -5 7 -70 -2 -85 -4 -7
-1 -8 8 -5 14 5 22 45 17 77 -1 10 11 9 29 -3 13 -9 13 -11 0 -20 -21 -13 -4
-13 22 1 19 10 20 9 15 -9 -3 -13 1 -26 11 -34 12 -10 14 -10 8 0 -4 6 -3 12
3 12 5 0 12 -6 14 -12 3 -7 6 0 6 15 1 26 2 27 17 13 8 -9 16 -25 17 -36 1
-23 17 -26 36 -7 10 8 12 8 7 0 -3 -6 -2 -14 3 -18 6 -3 8 -13 5 -23 -5 -14
-4 -15 5 -2 6 8 11 24 11 35 0 17 3 16 18 -7 17 -29 32 -36 32 -17 0 5 5 7 10
4 16 -10 12 -36 -7 -52 -17 -13 -16 -14 5 -10 12 3 22 0 23 -6 0 -7 8 5 17 25
9 21 39 60 67 89 46 49 50 50 59 30 10 -23 19 -26 45 -11 39 20 33 121 -5 106
-15 -6 -74 12 -74 23 0 3 13 21 30 39 17 18 27 39 24 47 -8 19 -68 20 -83 1
-10 -12 -16 -12 -41 1 -35 17 -38 33 -10 51 25 15 26 48 2 61 -24 13 -42 -4
-42 -36 0 -13 -4 -23 -10 -23 -5 0 -10 5 -10 12 0 6 -11 1 -25 -12 -14 -13
-25 -28 -25 -34 0 -6 9 0 20 14 13 17 22 22 29 15 13 -13 4 -25 -31 -48 -25
-16 -27 -16 -21 0 4 11 3 14 -5 9 -18 -11 -14 5 5 26 11 13 14 22 7 26 -6 4
-16 16 -22 27 -10 19 -11 19 -21 -7 -5 -15 -19 -32 -31 -38 -23 -13 -27 2 -5
20 9 7 15 23 13 34 -4 28 -47 34 -65 10 -21 -28 -27 -8 -13 41 7 25 10 48 7
52 -13 12 -37 -7 -37 -30 0 -30 -6 -36 -30 -30 -15 4 -18 11 -13 35 5 26 3 29
-13 26 -14 -2 -20 -14 -24 -48 -4 -37 -9 -45 -25 -45 -17 0 -20 8 -23 48 -5
75 -20 55 -26 -35 -11 -150 -13 -154 -14 -38 -2 108 -3 116 -22 117 -17 2 -20
-4 -20 -41 0 -24 -6 -49 -13 -55 -13 -10 -19 0 -43 87 -2 6 -13 12 -25 12 -17
0 -20 -4 -15 -22 3 -13 9 -40 12 -61 6 -31 4 -36 -9 -31 -8 3 -17 14 -20 25
-3 10 -12 19 -20 19 -8 0 -20 14 -27 30 -7 17 -15 31 -19 31 -26 6 -51 5 -51
0z m177 -103 c-3 -7 -5 -2 -5 12 0 14 2 19 5 13 2 -7 2 -19 0 -25z m323 -39
c0 -6 -4 -7 -10 -4 -5 3 -10 11 -10 16 0 6 5 7 10 4 6 -3 10 -11 10 -16z
m-291 -164 c-1 -16 -3 -25 -5 -19 -5 12 -60 10 -77 -4 -18 -14 -47 -11 -47 6
0 8 6 12 14 9 7 -3 22 0 32 7 11 6 29 11 42 10 19 -1 22 3 21 35 -1 20 -4 47
-8 61 -4 14 -5 36 -2 50 6 27 30 -100 30 -155z m-59 75 c0 -5 -2 -10 -4 -10
-3 0 -8 5 -11 10 -3 6 -1 10 4 10 6 0 11 -4 11 -10z m-55 -20 c3 -5 1 -10 -4
-10 -6 0 -11 5 -11 10 0 6 2 10 4 10 3 0 8 -4 11 -10z m565 -46 c-35 -50 -44
-56 -30 -19 15 40 41 75 51 69 5 -3 -5 -25 -21 -50z m-595 26 c-3 -5 -11 -10
-16 -10 -6 0 -7 5 -4 10 3 6 11 10 16 10 6 0 7 -4 4 -10z m28 -15 c-3 -9 -8
-14 -10 -11 -3 3 -2 9 2 15 9 16 15 13 8 -4z m610 -40 c-3 -11 -12 -29 -21
-40 -11 -16 -13 -16 -9 -2 4 11 1 17 -8 17 -20 0 -19 6 6 42 17 23 24 27 30
16 5 -7 6 -22 2 -33z m-673 25 c0 -5 -2 -10 -4 -10 -3 0 -8 5 -11 10 -3 6 -1
10 4 10 6 0 11 -4 11 -10z m340 -21 c0 -6 -4 -7 -10 -4 -5 3 -10 11 -10 16 0
6 5 7 10 4 6 -3 10 -11 10 -16z m-16 -24 c3 -8 1 -15 -4 -15 -6 0 -10 7 -10
15 0 8 2 15 4 15 2 0 6 -7 10 -15z m426 -54 c-1 -8 -29 -40 -62 -69 l-26 -24
14 43 c9 24 17 45 19 48 5 8 55 10 55 2z"/>
<path d="M2575 4070 c21 -22 41 -40 44 -40 3 0 -13 18 -34 40 -21 22 -41 40
-44 40 -3 0 13 -18 34 -40z"/>
<path d="M2645 4090 c10 -11 20 -20 23 -20 3 0 -3 9 -13 20 -10 11 -20 20 -23
20 -3 0 3 -9 13 -20z"/>
<path d="M3272 4098 c-12 -12 -16 -41 -7 -50 4 -3 17 -1 30 6 28 12 33 41 9
50 -20 8 -18 8 -32 -6z m28 -18 c0 -5 -4 -10 -10 -10 -5 0 -10 5 -10 10 0 6 5
10 10 10 6 0 10 -4 10 -10z"/>
<path d="M3586 3885 c-13 -34 -7 -46 22 -43 21 2 27 8 27 28 0 30 -38 41 -49
15z"/>
<path d="M2840 3741 c0 -5 9 -7 20 -4 11 3 20 7 20 9 0 2 -9 4 -20 4 -11 0
-20 -4 -20 -9z"/>
<path d="M2410 3730 c0 -5 5 -10 10 -10 6 0 10 5 10 10 0 6 -4 10 -10 10 -5 0
-10 -4 -10 -10z"/>
<path d="M3030 3714 c0 -8 5 -12 10 -9 6 4 8 11 5 16 -9 14 -15 11 -15 -7z"/>
<path d="M2860 3710 c0 -5 5 -10 11 -10 5 0 7 5 4 10 -3 6 -8 10 -11 10 -2 0
-4 -4 -4 -10z"/>
<path d="M2796 3697 c3 -10 9 -15 12 -12 3 3 0 11 -7 18 -10 9 -11 8 -5 -6z"/>
<path d="M3090 3699 c0 -5 5 -7 10 -4 6 3 10 8 10 11 0 2 -4 4 -10 4 -5 0 -10
-5 -10 -11z"/>
<path d="M3122 3690 c0 -14 2 -19 5 -12 2 6 2 18 0 25 -3 6 -5 1 -5 -13z"/>
<path d="M3025 3680 c3 -5 8 -10 11 -10 2 0 4 5 4 10 0 6 -5 10 -11 10 -5 0
-7 -4 -4 -10z"/>
<path d="M2917 3666 c-4 -10 -1 -13 8 -9 8 3 12 9 9 14 -7 12 -11 11 -17 -5z"/>
<path d="M2950 3654 c0 -8 5 -12 10 -9 6 4 8 11 5 16 -9 14 -15 11 -15 -7z"/>
<path d="M3115 3650 c-3 -5 1 -10 10 -10 9 0 13 5 10 10 -3 6 -8 10 -10 10 -2
0 -7 -4 -10 -10z"/>
<path d="M2900 3623 c-14 -7 -18 -13 -10 -13 17 0 47 17 40 23 -3 2 -16 -2
-30 -10z"/>
<path d="M3180 3629 c0 -5 5 -7 10 -4 6 3 10 8 10 11 0 2 -4 4 -10 4 -5 0 -10
-5 -10 -11z"/>
<path d="M2605 3600 c3 -5 8 -10 11 -10 2 0 4 5 4 10 0 6 -5 10 -11 10 -5 0
-7 -4 -4 -10z"/>
<path d="M3410 3600 c-12 -7 -13 -15 -3 -40 6 -17 9 -46 6 -65 -4 -27 -2 -33
12 -32 10 1 20 -3 22 -10 3 -7 -4 -10 -19 -6 -23 4 -23 4 -3 -12 11 -9 19 -23
17 -31 -2 -8 4 -14 13 -14 8 0 15 -8 15 -17 0 -10 -4 -14 -8 -8 -9 13 -52 17
-52 5 0 -6 11 -10 24 -10 30 0 43 -17 40 -52 -3 -28 10 -38 19 -15 4 8 6 8 6
0 1 -13 -55 -44 -63 -36 -3 3 -1 15 5 26 8 14 8 18 0 13 -6 -4 -11 -1 -11 7 0
18 -56 71 -68 63 -6 -3 -8 2 -5 13 3 10 0 22 -6 25 -5 4 -8 13 -4 21 3 10 -1
15 -12 15 -9 0 -13 -4 -10 -10 3 -5 2 -10 -4 -10 -5 0 -18 -3 -28 -6 -15 -5
-15 -4 -3 5 8 5 11 13 7 17 -3 4 -13 1 -21 -5 -8 -7 -17 -8 -20 -3 -10 16 21
34 46 27 18 -5 20 -4 8 4 -24 17 -46 13 -64 -11 -16 -22 -16 -22 -10 15 6 37
2 42 -34 38 -7 -1 -15 5 -18 14 -3 8 -10 15 -15 15 -4 0 -6 -7 -3 -15 5 -12
-2 -15 -29 -15 -19 0 -37 -5 -39 -11 -3 -9 -35 -11 -133 -7 -20 0 -101 -10
-142 -18 -12 -2 -29 -11 -37 -20 -9 -8 -33 -17 -54 -20 -21 -2 -44 -13 -54
-24 -9 -11 -36 -26 -60 -34 -41 -12 -44 -11 -45 6 -1 10 5 18 13 18 8 0 14 5
14 10 0 7 -6 7 -20 0 -11 -6 -20 -16 -20 -23 0 -8 -16 -21 -35 -30 -20 -9 -39
-25 -42 -34 -4 -10 -13 -22 -21 -27 -12 -7 -9 -11 14 -22 23 -10 25 -13 9 -14
-11 0 -29 -7 -39 -15 -27 -20 -35 -19 -29 5 3 11 9 20 14 20 5 0 9 6 9 13 -1
6 -12 -1 -25 -18 -23 -28 -24 -31 -8 -42 13 -10 14 -13 2 -14 -8 -1 -17 -1
-21 0 -4 0 -15 -13 -23 -29 -17 -33 -13 -36 42 -31 13 1 26 -6 33 -18 9 -17 6
-23 -15 -37 -30 -20 -32 -34 -5 -41 20 -5 28 -23 10 -23 -5 0 -6 -7 -3 -17 5
-12 3 -14 -8 -9 -8 4 18 -22 56 -59 80 -75 128 -108 80 -54 -44 50 -75 96 -75
114 0 8 -7 15 -16 15 -8 0 -12 5 -9 10 4 6 8 47 9 91 2 83 12 104 45 91 13 -5
14 -3 3 10 -10 13 -10 19 4 33 9 9 23 14 31 11 8 -4 17 4 23 19 5 14 18 28 27
32 10 4 31 19 48 35 16 16 35 26 41 24 7 -3 18 2 24 9 7 8 16 12 21 9 5 -3 9
0 9 6 0 6 5 8 10 5 6 -3 10 -1 10 5 0 30 115 49 255 42 22 -1 56 -1 75 1 19 2
40 0 45 -3 6 -4 30 -10 53 -13 24 -3 54 -14 65 -24 12 -10 35 -25 51 -33 15
-8 32 -25 37 -37 4 -12 17 -27 28 -33 11 -5 18 -17 15 -24 -3 -8 4 -21 16 -29
13 -9 18 -20 14 -31 -4 -10 0 -18 10 -22 21 -8 20 -24 -1 -40 -17 -12 -17 -13
3 -14 28 0 38 -26 16 -39 -10 -6 -12 -11 -4 -11 18 0 15 -38 -5 -49 -12 -7
-13 -10 -5 -11 11 0 12 -10 7 -42 -4 -24 -11 -47 -16 -52 -11 -12 -99 -25 -99
-14 0 5 -9 4 -20 -2 -11 -6 -20 -9 -20 -6 0 3 -15 -1 -32 -8 -18 -7 -43 -12
-55 -11 -14 1 -23 -4 -23 -12 0 -9 7 -12 18 -9 45 14 115 26 140 24 15 -1 37
2 50 6 28 9 30 -9 2 -24 -34 -18 -190 -41 -293 -44 -27 0 -46 -5 -44 -11 2 -5
21 -9 43 -9 93 3 194 13 204 19 6 4 14 4 17 1 11 -11 -30 -34 -62 -35 -16 0
-50 -3 -75 -6 -70 -10 -252 -11 -280 -2 -16 5 -26 4 -28 -2 -4 -13 -38 -15
-46 -3 -2 4 -27 7 -55 6 -36 0 -51 3 -51 13 0 15 -16 17 -25 3 -4 -6 -16 -8
-28 -4 l-22 6 23 -21 c29 -28 28 -49 -3 -63 -23 -10 -25 -17 -23 -57 3 -40 1
-45 -22 -51 -22 -5 -23 -7 -7 -13 26 -10 39 -9 33 2 -4 5 -1 11 6 13 7 3 12
21 12 41 0 20 4 37 8 37 4 0 8 -9 8 -19 0 -10 6 -21 14 -24 10 -4 14 -21 13
-55 -1 -54 7 -72 29 -72 14 0 14 2 1 15 -14 13 -12 18 11 45 15 16 34 30 44
30 10 0 18 5 18 11 0 6 15 8 43 4 23 -4 93 -7 154 -8 82 -2 113 -5 113 -14 0
-7 12 -16 26 -19 15 -4 23 -12 20 -20 -3 -7 0 -16 6 -20 8 -5 9 6 5 39 -6 39
-4 47 10 47 9 0 22 8 29 18 13 16 13 16 14 -1 0 -15 6 -13 34 15 36 36 39 47
16 64 -11 9 -12 15 -2 26 6 8 8 19 4 23 -4 5 0 6 9 2 18 -6 84 54 73 66 -4 4
0 7 8 7 9 0 21 7 28 15 17 21 30 19 30 -4 0 -11 -13 -30 -29 -43 -27 -21 -29
-27 -24 -65 5 -37 9 -43 29 -43 13 0 24 5 24 10 0 6 6 10 14 10 9 0 12 8 8 25
-2 14 -11 25 -18 25 -8 0 -14 5 -14 10 0 6 5 10 10 10 6 0 10 8 10 19 0 10 11
39 25 64 22 43 23 47 7 56 -15 9 -15 10 3 11 13 0 21 8 22 23 2 12 5 38 6 56
4 39 16 47 46 31 20 -10 31 3 12 14 -7 5 -13 24 -27 94 -4 21 -14 27 -14 9 0
-9 -5 -17 -11 -17 -5 0 -7 4 -4 10 3 5 -1 20 -9 32 -21 30 -20 38 7 38 18 0
19 -2 7 -10 -13 -8 -12 -10 3 -10 11 0 17 8 17 21 0 13 10 23 30 31 35 12 35
15 -12 118 -17 36 -38 90 -47 120 -17 52 -19 55 -49 54 -34 -2 -39 5 -20 24
14 14 9 15 -12 2z m-190 -120 c0 -5 -4 -10 -9 -10 -6 0 -13 5 -16 10 -3 6 1
10 9 10 9 0 16 -4 16 -10z m-642 -152 c-3 -7 -15 -15 -28 -16 -13 -2 -31 -14
-41 -25 -10 -12 -18 -16 -19 -9 0 6 5 12 11 12 5 0 7 4 4 10 -3 5 0 16 7 24
16 19 71 21 66 4z m896 -313 c3 -8 1 -15 -4 -15 -6 0 -10 7 -10 15 0 8 2 15 4
15 2 0 6 -7 10 -15z m-129 -175 c-3 -5 -12 -10 -18 -10 -7 0 -6 4 3 10 19 12
23 12 15 0z m-541 -74 c-3 -9 -12 -12 -22 -9 -15 6 -9 11 25 22 1 1 0 -5 -3
-13z m453 8 c-4 -4 -30 -9 -59 -11 -32 -2 -48 0 -40 5 15 10 109 15 99 6z
m-211 -41 c-10 -10 -19 5 -10 18 6 11 8 11 12 0 2 -7 1 -15 -2 -18z m57 20
c-7 -2 -21 -2 -30 0 -10 3 -4 5 12 5 17 0 24 -2 18 -5z"/>
<path d="M3295 3590 c-3 -5 -1 -10 4 -10 6 0 11 5 11 10 0 6 -2 10 -4 10 -3 0
-8 -4 -11 -10z"/>
<path d="M2560 3574 c0 -8 5 -12 10 -9 6 4 8 11 5 16 -9 14 -15 11 -15 -7z"/>
<path d="M2688 3583 c6 -2 12 -11 12 -19 0 -9 4 -13 10 -9 14 9 0 35 -19 34
-10 0 -11 -2 -3 -6z"/>
<path d="M2595 3570 c3 -5 8 -10 11 -10 2 0 4 5 4 10 0 6 -5 10 -11 10 -5 0
-7 -4 -4 -10z"/>
<path d="M3260 3560 c0 -5 5 -10 11 -10 5 0 7 5 4 10 -3 6 -8 10 -11 10 -2 0
-4 -4 -4 -10z"/>
<path d="M3335 3561 c-11 -5 -27 -6 -35 -4 -12 4 -12 3 -2 -5 15 -10 62 -4 62
9 0 5 -1 9 -2 8 -2 0 -12 -4 -23 -8z"/>
<path d="M2486 3547 c3 -10 9 -15 12 -12 3 3 0 11 -7 18 -10 9 -11 8 -5 -6z"/>
<path d="M3231 3544 c0 -11 3 -14 6 -6 3 7 2 16 -1 19 -3 4 -6 -2 -5 -13z"/>
<path d="M2515 3540 c3 -5 8 -10 11 -10 2 0 4 5 4 10 0 6 -5 10 -11 10 -5 0
-7 -4 -4 -10z"/>
<path d="M3065 3520 c-3 -5 -1 -10 4 -10 6 0 11 5 11 10 0 6 -2 10 -4 10 -3 0
-8 -4 -11 -10z"/>
<path d="M3287 3523 c-3 -5 4 -15 16 -23 21 -12 21 -12 7 6 -8 10 -15 20 -16
22 -1 2 -4 -1 -7 -5z"/>
<path d="M3349 3516 c6 -7 22 -11 36 -8 32 6 24 15 -16 18 -24 2 -28 0 -20
-10z"/>
<path d="M2885 3510 c-3 -5 -1 -10 4 -10 6 0 11 5 11 10 0 6 -2 10 -4 10 -3 0
-8 -4 -11 -10z"/>
<path d="M3513 3504 c-3 -8 -1 -24 4 -35 9 -21 9 -21 32 -1 16 12 22 25 18 35
-8 21 -46 22 -54 1z"/>
<path d="M2466 3502 c-2 -4 4 -9 15 -9 11 -1 17 2 14 8 -7 11 -22 12 -29 1z"/>
<path d="M2456 3471 c-18 -28 -23 -58 -11 -58 7 0 10 8 7 19 -2 10 1 18 7 18
7 0 10 4 7 9 -4 5 0 12 6 14 9 4 10 6 1 6 -6 1 -14 -3 -17 -8z"/>
<path d="M2750 3471 c0 -6 5 -13 10 -16 6 -3 10 1 10 9 0 9 -4 16 -10 16 -5 0
-10 -4 -10 -9z"/>
<path d="M2705 3460 c-3 -5 -1 -10 4 -10 6 0 11 5 11 10 0 6 -2 10 -4 10 -3 0
-8 -4 -11 -10z"/>
<path d="M2666 3443 c-4 -13 -14 -23 -22 -23 -8 0 -14 -4 -14 -10 0 -14 11
-12 33 5 10 7 17 22 15 32 -4 16 -5 15 -12 -4z"/>
<path d="M3371 3394 c0 -11 3 -14 6 -6 3 7 2 16 -1 19 -3 4 -6 -2 -5 -13z"/>
<path d="M2434 3378 c3 -15 26 -23 26 -8 0 6 -4 9 -9 6 -5 -4 -12 -1 -14 4 -3
6 -4 5 -3 -2z"/>
<path d="M2420 3334 c0 -8 5 -12 10 -9 6 3 10 10 10 16 0 5 -4 9 -10 9 -5 0
-10 -7 -10 -16z"/>
<path d="M2465 3340 c-3 -5 -2 -10 4 -10 5 0 13 5 16 10 3 6 2 10 -4 10 -5 0
-13 -4 -16 -10z"/>
<path d="M2646 3321 c-4 -5 -2 -12 3 -15 5 -4 12 -2 15 3 4 5 2 12 -3 15 -5 4
-12 2 -15 -3z"/>
<path d="M2690 3312 c0 -21 -38 -42 -76 -42 -16 0 -24 -5 -21 -12 2 -7 15 -13
28 -13 13 0 30 -4 37 -8 7 -5 12 -3 12 5 0 7 14 25 32 40 28 23 31 29 18 38
-22 14 -30 12 -30 -8z"/>
<path d="M3133 3313 c-23 -9 -14 -30 17 -43 17 -7 30 -16 30 -20 0 -13 45 -20
75 -11 l30 8 -25 11 c-14 6 -41 13 -60 17 -41 6 -67 21 -57 31 3 4 13 1 22 -6
8 -7 15 -8 15 -2 0 8 -26 25 -33 21 -1 0 -8 -3 -14 -6z"/>
<path d="M2700 3235 c0 -8 2 -15 4 -15 2 0 6 7 10 15 3 8 1 15 -4 15 -6 0 -10
-7 -10 -15z"/>
<path d="M2735 3230 c3 -5 8 -10 11 -10 2 0 4 5 4 10 0 6 -5 10 -11 10 -5 0
-7 -4 -4 -10z"/>
<path d="M3110 3231 c0 -5 5 -13 10 -16 6 -3 10 -2 10 4 0 5 -4 13 -10 16 -5
3 -10 2 -10 -4z"/>
<path d="M3150 3191 c0 -6 -3 -10 -7 -10 -25 4 -44 -3 -40 -13 2 -7 12 -11 22
-10 30 6 0 -25 -32 -33 -18 -4 -23 -9 -15 -14 7 -4 14 -22 15 -39 1 -18 7 -32
13 -32 6 0 17 -6 24 -14 34 -42 100 -2 100 60 0 25 -8 39 -32 58 -18 14 -27
26 -20 26 6 0 12 5 12 12 0 6 -3 8 -7 5 -3 -4 -12 -2 -20 4 -9 9 -13 8 -13 0z"/>
<path d="M2696 3178 c3 -5 10 -6 15 -3 13 9 11 12 -6 12 -8 0 -12 -4 -9 -9z"/>
<path d="M2740 3179 c0 -4 -12 -14 -27 -21 -37 -17 -54 -69 -39 -112 21 -60
48 -63 98 -13 23 23 29 66 15 97 -3 8 -5 24 -4 34 1 13 -5 19 -20 21 -13 1
-23 -2 -23 -6z"/>
<path d="M2820 3170 c-9 -6 -10 -10 -3 -10 6 0 15 5 18 10 8 12 4 12 -15 0z"/>
<path d="M3311 3134 c0 -11 3 -14 6 -6 3 7 2 16 -1 19 -3 4 -6 -2 -5 -13z"/>
<path d="M3251 3124 c0 -11 3 -14 6 -6 3 7 2 16 -1 19 -3 4 -6 -2 -5 -13z"/>
<path d="M2350 3115 c0 -8 4 -15 9 -15 5 0 11 7 15 15 3 9 0 15 -9 15 -8 0
-15 -7 -15 -15z"/>
<path d="M2920 3110 c0 -5 5 -10 11 -10 5 0 7 5 4 10 -3 6 -8 10 -11 10 -2 0
-4 -4 -4 -10z"/>
<path d="M3378 3083 c7 -3 16 -2 19 1 4 3 -2 6 -13 5 -11 0 -14 -3 -6 -6z"/>
<path d="M3035 3040 c3 -5 8 -10 11 -10 2 0 4 5 4 10 0 6 -5 10 -11 10 -5 0
-7 -4 -4 -10z"/>
<path d="M2380 3030 c0 -5 4 -10 9 -10 6 0 13 5 16 10 3 6 -1 10 -9 10 -9 0
-16 -4 -16 -10z"/>
<path d="M3341 3024 c0 -11 3 -14 6 -6 3 7 2 16 -1 19 -3 4 -6 -2 -5 -13z"/>
<path d="M3291 3014 c0 -11 3 -14 6 -6 3 7 2 16 -1 19 -3 4 -6 -2 -5 -13z"/>
<path d="M3081 2994 c0 -11 3 -14 6 -6 3 7 2 16 -1 19 -3 4 -6 -2 -5 -13z"/>
<path d="M3338 2969 c-23 -14 -4 -16 42 -3 l45 12 -37 -1 c-20 0 -43 -4 -50
-8z"/>
<path d="M3280 2960 c0 -5 5 -10 11 -10 5 0 7 5 4 10 -3 6 -8 10 -11 10 -2 0
-4 -4 -4 -10z"/>
<path d="M2695 2940 c4 -6 11 -8 16 -5 14 9 11 15 -7 15 -8 0 -12 -5 -9 -10z"/>
<path d="M3180 2940 c0 -5 5 -10 11 -10 5 0 7 5 4 10 -3 6 -8 10 -11 10 -2 0
-4 -4 -4 -10z"/>
<path d="M2855 2930 c-3 -5 3 -10 14 -10 11 0 23 -4 26 -10 8 -12 92 -13 99
-1 3 5 15 7 26 4 16 -4 19 -2 14 11 -4 10 -13 14 -23 11 -25 -8 -127 -9 -139
-1 -6 3 -13 2 -17 -4z"/>
<path d="M3070 2930 c0 -5 5 -10 11 -10 5 0 7 5 4 10 -3 6 -8 10 -11 10 -2 0
-4 -4 -4 -10z"/>
<path d="M2530 2926 c0 -2 7 -6 15 -10 8 -3 15 -1 15 4 0 6 -7 10 -15 10 -8 0
-15 -2 -15 -4z"/>
<path d="M2615 2910 c4 -6 13 -10 21 -10 8 0 14 -4 14 -10 0 -5 7 -10 16 -10
23 0 8 17 -26 29 -18 6 -28 6 -25 1z"/>
<path d="M2745 2880 c3 -5 10 -10 16 -10 5 0 9 5 9 10 0 6 -7 10 -16 10 -8 0
-12 -4 -9 -10z"/>
<path d="M2785 2880 c3 -5 13 -10 21 -10 8 0 14 5 14 10 0 6 -9 10 -21 10 -11
0 -17 -4 -14 -10z"/>
<path d="M3045 2880 c-11 -4 -26 -5 -34 -2 -9 3 -12 0 -9 -9 3 -8 12 -12 19
-11 8 2 38 5 67 7 30 1 59 8 65 15 9 9 5 10 -18 5 -16 -4 -36 -9 -44 -11 -8
-3 -17 -1 -20 4 -3 5 -15 6 -26 2z"/>
<path d="M2835 2870 c3 -5 12 -10 20 -10 8 0 17 5 20 10 4 6 -5 10 -20 10 -15
0 -24 -4 -20 -10z"/>
<path d="M2950 2864 c0 -15 26 -19 34 -5 3 5 -3 11 -14 14 -13 3 -20 0 -20 -9z"/>
<path d="M2590 2862 c0 -23 212 -53 225 -32 4 6 -10 10 -37 10 -47 0 -142 14
-170 25 -10 4 -18 3 -18 -3z"/>
<path d="M2895 2860 c3 -5 13 -10 21 -10 8 0 14 5 14 10 0 6 -9 10 -21 10 -11
0 -17 -4 -14 -10z"/>
<path d="M2826 2834 c-8 -22 -8 -24 8 -24 21 0 28 16 12 29 -11 9 -15 8 -20
-5z"/>
<path d="M3376 2681 c-4 -7 -5 -15 -2 -18 9 -9 19 4 14 18 -4 11 -6 11 -12 0z"/>
<path d="M3250 2630 c0 -11 5 -20 11 -20 5 0 8 4 5 9 -4 5 -1 11 6 13 8 3 6 7
-5 11 -12 5 -17 1 -17 -13z"/>
<path d="M3345 2588 c2 -29 -20 -52 -45 -45 -10 3 -21 0 -24 -7 -3 -7 -5 -7
-5 0 -1 6 8 21 19 34 11 13 18 26 15 29 -4 3 -10 -1 -15 -9 -8 -12 -13 -13
-30 -2 -29 18 -30 16 -10 -38 13 -34 15 -50 7 -50 -7 0 -5 -5 4 -10 12 -7 17
-24 17 -66 0 -31 -4 -51 -8 -44 -11 17 -29 4 -27 -19 1 -14 7 -18 27 -15 24 4
24 3 6 -11 -10 -8 -23 -12 -27 -9 -5 3 -9 -1 -9 -9 0 -12 -7 -13 -41 -5 -26 7
-38 15 -35 24 3 8 0 11 -10 7 -7 -3 -14 -11 -14 -19 0 -13 -6 -16 -27 -13 -5
1 -7 5 -5 11 1 5 -3 8 -10 6 -7 -3 -14 -12 -16 -21 -2 -12 4 -17 20 -18 13 0
17 -3 10 -6 -21 -8 -71 19 -64 36 4 11 1 13 -12 8 -10 -4 -19 -7 -22 -7 -2 0
-1 -7 2 -15 4 -8 15 -15 25 -15 10 0 19 -4 19 -8 0 -12 -44 -10 -52 2 -5 7 -8
7 -8 -1 0 -7 -9 -13 -20 -13 -21 0 -60 33 -60 51 0 6 -5 7 -12 2 -7 -4 -23 -9
-35 -11 -17 -2 -21 1 -17 13 7 17 -4 19 -25 6 -18 -11 -5 -31 20 -31 10 0 19
-4 19 -10 0 -17 -48 -11 -59 8 -6 9 -11 11 -11 5 0 -7 -8 -13 -17 -13 -21 1
-57 46 -48 60 3 6 -1 10 -9 10 -17 0 -11 -29 8 -42 7 -5 4 -8 -6 -8 -9 0 -19
4 -22 9 -3 4 -17 6 -31 3 -14 -2 -25 0 -25 5 0 19 -90 -1 -90 -21 0 -6 -5 -4
-10 6 -7 11 -5 25 7 47 10 17 21 31 26 31 12 0 8 -28 -4 -32 -7 -2 -9 -11 -6
-18 3 -10 9 -4 18 18 15 36 24 40 38 15 9 -16 10 -16 11 4 0 12 -9 28 -21 36
-30 22 -6 31 31 12 16 -8 30 -12 30 -9 0 4 9 -1 19 -10 11 -10 24 -15 30 -12
5 3 11 2 13 -3 3 -9 34 -18 93 -26 11 -2 20 -4 20 -5 0 -5 57 -13 95 -12 91 1
110 5 111 21 0 12 2 11 8 -3 5 -13 10 -16 15 -8 3 6 13 9 21 5 8 -3 15 -1 15
5 0 12 -63 23 -70 12 -7 -10 -61 -19 -55 -9 3 4 1 10 -5 14 -5 3 -10 2 -10 -3
0 -5 -11 -12 -25 -14 -13 -3 -22 -2 -20 3 3 4 1 10 -5 14 -5 3 -10 2 -10 -4 0
-5 -9 -9 -20 -8 -11 1 -20 5 -20 10 0 12 -22 32 -43 40 -14 5 -18 3 -15 -11 2
-10 11 -16 21 -14 9 2 17 -2 17 -8 0 -19 -50 -12 -51 8 0 10 -3 12 -6 5 -8
-21 -43 -15 -53 10 -5 12 -9 16 -9 10 -1 -19 -29 -16 -40 5 -5 9 -12 16 -15
15 -15 -7 -36 -2 -31 7 3 6 -4 10 -17 10 l-23 0 25 20 c25 19 25 20 3 20 -12
0 -34 -11 -49 -25 -35 -33 -66 -40 -119 -28 -36 8 -46 7 -69 -10 -34 -24 -25
-37 27 -38 23 0 36 -3 30 -6 -10 -3 -9 -8 2 -20 8 -8 15 -19 15 -24 0 -12 -37
-12 -42 1 -2 6 -9 1 -17 -11 -11 -19 -11 -21 3 -16 9 4 16 2 16 -3 0 -6 -9
-10 -20 -10 -11 0 -20 5 -20 11 0 6 -5 9 -12 7 -16 -6 -19 -38 -3 -38 7 0 16
-7 19 -16 4 -10 2 -13 -7 -8 -8 6 -8 3 1 -9 12 -14 6 -23 -42 -74 -31 -32 -56
-64 -56 -70 0 -12 -19 -17 -47 -14 -8 1 -10 -5 -7 -14 3 -8 10 -12 15 -9 5 3
9 1 9 -5 0 -5 3 -16 6 -24 4 -12 0 -14 -15 -10 -28 7 -26 -2 4 -33 25 -25 33
-40 15 -29 -5 3 -10 0 -11 -7 0 -7 -4 -4 -8 7 -7 18 -9 16 -15 -12 -8 -36 -35
-52 -48 -28 -5 8 -13 15 -19 15 -14 0 24 -49 39 -50 6 0 12 -5 12 -11 0 -6 -8
-8 -17 -5 -10 3 -25 1 -33 -4 -13 -9 -13 -10 0 -11 8 -1 18 -1 21 -1 4 1 5 -7
2 -17 -5 -19 -34 -24 -44 -8 -4 6 -14 5 -25 -2 -18 -10 -18 -10 4 -11 12 0 22
-4 22 -9 0 -14 -29 -22 -56 -15 -14 4 -24 2 -24 -5 0 -6 7 -11 15 -11 7 0 18
-7 23 -16 8 -14 17 -12 83 16 41 18 82 39 92 48 27 24 33 5 6 -24 -14 -16 -19
-28 -13 -31 31 -11 47 -31 39 -49 -7 -17 -9 -17 -12 -2 -4 14 -8 15 -31 6 -15
-6 -35 -20 -44 -31 -20 -21 -25 -52 -7 -41 8 4 9 -3 3 -27 -4 -19 -7 -44 -7
-56 1 -26 -12 -31 -21 -8 -3 8 -10 15 -16 15 -6 0 -2 -9 9 -21 19 -21 19 -29
-4 -94 -5 -14 -4 -16 3 -6 5 7 12 9 15 4 3 -5 -3 -14 -14 -21 -17 -11 -19 -9
-19 11 0 17 -6 23 -22 24 -13 0 -17 -1 -10 -4 6 -3 12 -11 12 -19 0 -9 -4 -13
-9 -10 -4 3 -11 -15 -15 -41 -3 -26 -14 -52 -24 -59 -16 -13 -16 -14 1 -8 21
7 23 -12 2 -23 -14 -8 -49 -92 -41 -100 6 -7 25 31 29 58 6 34 21 33 35 -3
l12 -32 25 24 c13 12 22 27 18 33 -3 6 -1 7 6 3 15 -9 39 15 33 33 -3 10 0 12
12 8 20 -8 66 19 66 38 0 8 9 10 27 7 l27 -5 -18 28 c-13 20 -15 30 -8 33 7 2
12 10 12 18 0 8 -6 11 -15 8 -8 -4 -15 -18 -15 -33 l0 -26 -15 28 c-13 25 -13
31 0 43 11 12 19 12 35 4 17 -9 20 -8 20 9 0 14 -5 19 -16 14 -10 -4 -17 1
-21 15 -3 12 -11 18 -18 16 -17 -7 -28 12 -27 47 0 16 -4 29 -10 29 -6 0 -8
-11 -5 -25 3 -16 0 -24 -7 -22 -16 5 -16 57 0 57 7 0 16 9 19 20 7 23 25 27
25 6 0 -7 9 -16 21 -19 17 -5 19 -9 9 -26 -11 -21 3 -31 15 -11 10 16 63 -29
58 -50 -3 -10 1 -21 8 -26 9 -5 11 -2 6 8 -8 21 3 31 19 17 7 -5 10 -21 8 -35
-2 -13 0 -24 6 -24 5 0 10 10 10 23 l1 22 18 -22 c11 -13 24 -23 30 -23 6 0
15 -9 21 -20 6 -11 15 -18 20 -15 4 3 15 -1 23 -9 8 -8 18 -12 22 -8 3 4 13
-2 21 -12 7 -11 17 -17 20 -13 4 4 29 -10 56 -29 46 -34 52 -36 128 -35 84 1
99 6 165 57 41 31 74 48 87 46 5 -1 7 1 7 6 -3 20 2 32 12 27 6 -4 19 2 30 14
18 19 31 25 44 19 2 -2 12 7 20 19 9 13 22 20 30 17 8 -4 15 -1 15 6 0 6 -4 8
-10 5 -5 -3 -10 -2 -10 3 0 6 18 25 40 43 22 19 38 39 35 46 -3 9 6 13 26 13
22 0 28 -4 22 -12 -13 -21 -10 -66 5 -61 6 3 12 1 12 -5 0 -5 -7 -13 -16 -16
-20 -8 -24 -8 -23 2 4 21 -2 42 -12 42 -14 0 -1 -42 18 -57 12 -10 11 -12 -6
-18 -21 -6 -28 -29 -12 -39 12 -8 8 -49 -6 -53 -6 -2 -12 4 -13 14 -1 46 -5
61 -13 56 -5 -3 -7 -21 -5 -39 4 -31 1 -35 -32 -45 -59 -18 -82 -32 -68 -41
17 -10 30 -10 24 1 -6 10 26 21 61 21 12 0 23 -5 25 -12 3 -7 14 -4 34 10 30
22 93 42 198 61 32 6 71 17 87 25 20 10 29 11 33 2 3 -8 7 -7 14 3 13 17 32 6
32 -20 0 -10 4 -27 9 -37 17 -30 32 -137 21 -140 -11 -4 -4 -22 10 -22 15 0
20 31 9 52 -8 14 -8 18 0 14 6 -4 20 -38 31 -76 20 -66 34 -89 47 -76 4 3 -2
12 -12 20 -10 7 -15 18 -11 25 4 6 3 18 -3 25 -7 8 -11 18 -10 22 1 5 -1 17
-6 28 -5 12 -3 21 6 27 8 5 9 9 3 9 -15 0 -24 71 -12 87 16 20 -18 113 -42
114 -11 0 -11 2 -2 6 16 6 -15 32 -39 33 -9 0 -19 7 -23 15 -5 14 6 19 41 18
7 -1 11 3 8 7 -3 4 -15 8 -27 8 -31 0 -78 19 -78 32 0 9 17 14 47 13 7 -1 10
3 7 8 -3 5 -15 9 -27 9 -29 0 -51 15 -43 29 4 6 12 9 17 6 5 -4 9 -1 9 4 0 6
-9 11 -20 11 -11 0 -20 4 -20 9 0 13 26 32 33 24 4 -3 7 -1 7 6 0 7 -7 11 -15
8 -21 -9 -24 2 -15 56 5 37 4 50 -6 54 -21 8 -17 23 6 23 11 0 20 5 20 11 0 6
7 9 15 5 8 -3 15 -2 15 3 0 12 81 46 104 43 33 -4 68 58 56 98 -4 14 -14 45
-21 70 -7 25 -22 65 -34 90 -29 59 -85 235 -85 265 0 13 -4 35 -10 49 -13 36
-61 35 -109 -1 -72 -56 -104 -74 -120 -70 -14 4 -14 5 2 6 26 2 21 28 -5 27
-18 -1 -25 7 -32 37 -10 41 -24 50 -21 15z m15 -77 c0 -8 -7 -11 -20 -8 -10 3
-21 0 -24 -7 -3 -6 -5 -7 -5 -1 -1 6 7 21 16 32 18 22 33 15 33 -16z m-863
-115 c-4 -10 -1 -13 9 -9 7 3 14 1 14 -5 0 -5 -9 -12 -20 -15 -14 -4 -20 0
-20 12 0 17 8 31 18 31 2 0 2 -7 -1 -14z m108 -96 c-8 -16 -15 -35 -15 -42 0
-7 8 2 17 20 8 18 18 31 20 28 2 -2 0 -12 -6 -23 -6 -10 -17 -58 -25 -108 -9
-49 -22 -108 -30 -130 l-16 -40 5 45 c6 46 8 66 20 185 5 45 13 74 24 82 23
18 23 16 6 -17z m575 0 c0 -5 -9 -10 -21 -10 -11 0 -17 5 -14 10 3 6 13 10 21
10 8 0 14 -4 14 -10z m227 -12 c-3 -8 -6 -5 -6 6 -1 11 2 17 5 13 3 -3 4 -12
1 -19z m-674 0 c9 0 17 -4 17 -9 0 -6 10 -9 23 -8 12 2 28 0 35 -5 11 -7 111
-17 172 -18 54 0 158 12 184 21 14 6 26 8 26 5 0 -4 6 -2 13 4 19 15 77 25 77
13 0 -6 -7 -11 -15 -11 -8 0 -15 -5 -15 -10 0 -6 -3 -9 -7 -8 -20 5 -54 -15
-49 -28 3 -8 1 -14 -4 -14 -6 0 -10 -7 -10 -15 0 -9 -9 -15 -22 -15 -21 0 -21
0 -2 15 10 8 15 15 10 15 -5 0 -3 7 4 15 14 16 10 18 -14 9 -9 -3 -16 -12 -16
-20 0 -8 -7 -14 -16 -14 -10 0 -14 6 -10 15 6 17 4 18 -18 9 -9 -3 -16 -12
-16 -20 0 -8 -7 -14 -15 -14 -8 0 -15 5 -15 10 0 6 6 10 13 10 8 0 8 3 -2 9
-9 6 -19 4 -28 -4 -19 -20 -16 -35 7 -35 28 0 25 -17 -4 -22 -41 -8 -86 3 -86
21 -1 14 -2 14 -11 -1 -5 -10 -19 -18 -29 -18 -12 0 -20 7 -20 18 0 10 -3 13
-8 6 -4 -6 -17 -13 -29 -16 -18 -5 -23 -2 -23 13 0 10 -5 19 -11 19 -6 0 -9 7
-6 15 7 18 -11 31 -24 18 -13 -13 -1 -43 17 -43 8 0 14 -4 14 -10 0 -19 -42
-10 -47 10 -3 11 -10 20 -15 20 -6 0 -8 7 -5 15 9 21 -9 28 -26 10 -22 -22
-40 -19 -32 5 5 16 2 20 -14 20 -12 0 -21 4 -21 9 0 13 22 21 40 14 8 -3 23
-5 33 -5z m197 -8 c0 -12 -43 -6 -47 6 -2 7 6 10 22 7 14 -3 25 -9 25 -13z
m-297 -15 c-3 -9 -8 -14 -10 -11 -3 3 -2 9 2 15 9 16 15 13 8 -4z m46 -37 c10
-30 9 -31 -4 -14 -8 11 -15 26 -15 33 0 22 8 14 19 -19z m-219 8 c0 -8 2 -20
3 -28 2 -7 2 -10 0 -6 -6 10 -36 -2 -50 -20 -12 -14 -13 -14 -13 0 0 18 37 68
51 68 5 0 9 -6 9 -14z m776 -2 c-3 -9 -6 -21 -7 -27 0 -7 -4 -3 -8 8 -9 22 -5
35 11 35 5 0 7 -7 4 -16z m181 -31 c-3 -10 -5 -2 -5 17 0 19 2 27 5 18 2 -10
2 -26 0 -35z m-140 15 c-3 -8 -6 -5 -6 6 -1 11 2 17 5 13 3 -3 4 -12 1 -19z
m-17 8 c0 -3 -4 -8 -10 -11 -5 -3 -10 -1 -10 4 0 6 5 11 10 11 6 0 10 -2 10
-4z m80 -11 c10 -12 15 -13 21 -4 7 13 12 -6 24 -102 4 -36 2 -48 -9 -52 -25
-10 -39 20 -34 73 4 36 2 50 -7 50 -12 0 -25 21 -25 41 0 14 16 11 30 -6z
m-605 -5 c4 -6 11 -8 16 -5 5 4 9 1 9 -5 0 -15 -42 -8 -48 8 -4 14 14 16 23 2z
m390 -20 c-3 -5 -15 -10 -26 -10 -11 0 -17 5 -14 10 3 6 15 10 26 10 11 0 17
-4 14 -10z m136 -14 c-13 -16 -61 -27 -61 -15 0 5 9 9 19 9 11 0 23 5 26 10 3
6 11 10 17 10 7 0 7 -5 -1 -14z m166 -58 c-2 -13 -4 -3 -4 22 0 25 2 35 4 23
2 -13 2 -33 0 -45z m-733 37 c3 -8 1 -15 -4 -15 -6 0 -10 7 -10 15 0 8 2 15 4
15 2 0 6 -7 10 -15z m171 -1 c120 -8 166 -8 254 -1 67 6 72 5 55 -8 -10 -8
-36 -15 -56 -15 -36 0 -49 -12 -28 -25 18 -11 11 -22 -12 -20 -42 4 -43 6 -24
20 22 17 17 29 -8 19 -9 -3 -16 -12 -16 -20 0 -8 -7 -14 -16 -14 -10 0 -14 6
-10 15 4 11 -2 15 -20 15 -20 0 -25 -4 -20 -16 4 -11 1 -14 -12 -12 -9 2 -16
12 -16 21 1 11 -4 17 -14 15 -21 -4 -25 -38 -4 -38 12 0 13 -3 4 -12 -9 -9
-16 -7 -30 8 -10 11 -17 25 -14 32 4 13 0 15 -22 6 -18 -7 -10 -34 10 -34 8 0
14 -4 14 -10 0 -16 -29 -11 -48 8 -10 10 -17 23 -14 30 2 6 -5 10 -16 9 -24
-1 -18 -37 6 -37 13 0 14 -2 3 -12 -10 -11 -16 -8 -31 11 -10 14 -16 31 -13
38 3 8 -3 13 -16 13 -25 0 -26 -8 -5 -38 8 -12 11 -22 7 -22 -12 0 -46 41 -39
47 3 3 1 13 -3 22 -8 14 -4 16 27 14 21 -2 78 -6 127 -9z m-468 -16 c-3 -8 -6
-5 -6 6 -1 11 2 17 5 13 3 -3 4 -12 1 -19z m848 -10 c5 4 5 2 1 -5 -8 -14 -36
-6 -36 9 0 7 5 6 13 -1 8 -6 18 -7 22 -3z m35 -2 c0 -3 -4 -8 -10 -11 -5 -3
-10 -1 -10 4 0 6 5 11 10 11 6 0 10 -2 10 -4z m-145 -16 c3 -5 -1 -10 -10 -10
-9 0 -13 5 -10 10 3 6 8 10 10 10 2 0 7 -4 10 -10z m80 -10 c3 -5 -1 -10 -10
-10 -9 0 -13 5 -10 10 3 6 8 10 10 10 2 0 7 -4 10 -10z m-195 -33 c0 -2 -16
-3 -36 -3 -31 0 -33 2 -18 13 12 8 22 9 35 2 11 -5 19 -11 19 -12z m-85 -7
c-3 -5 -11 -10 -16 -10 -6 0 -7 5 -4 10 3 6 11 10 16 10 6 0 7 -4 4 -10z
m-171 -12 c-3 -4 -9 -8 -15 -8 -5 0 -9 4 -9 8 0 5 7 9 15 9 8 0 12 -4 9 -9z
m53 -9 c-14 -8 -22 -8 -30 0 -8 8 -3 11 19 11 25 -1 27 -2 11 -11z m58 1 c-3
-5 -13 -10 -21 -10 -8 0 -14 5 -14 10 0 6 9 10 21 10 11 0 17 -4 14 -10z m260
0 c-3 -5 -13 -6 -23 -3 -15 6 -15 5 1 -12 15 -14 21 -15 27 -6 4 8 16 11 29 6
13 -4 21 -2 21 6 0 8 4 8 15 -1 17 -14 13 -22 -13 -27 -9 -2 -24 -5 -31 -7
-21 -4 -26 -26 -7 -26 9 0 16 5 16 11 0 8 4 9 13 0 8 -6 17 -8 20 -5 11 11 97
12 97 1 0 -6 8 -19 18 -30 15 -18 15 -20 1 -14 -9 3 -21 1 -26 -4 -6 -6 -24
-11 -41 -11 -21 -1 -29 -5 -25 -14 5 -15 23 -19 23 -6 0 4 20 7 44 7 42 0 44
-1 28 -16 -9 -9 -19 -12 -20 -7 -6 14 -22 -2 -22 -23 0 -11 -5 -17 -10 -14 -6
4 -8 11 -5 16 4 5 1 9 -4 9 -14 0 -14 -27 -1 -35 6 -4 17 -1 25 5 11 9 15 9
15 1 0 -11 -40 -31 -62 -31 -5 0 -8 7 -4 15 3 8 1 15 -5 15 -6 0 -9 7 -5 15 3
8 0 14 -7 12 -7 -1 -11 7 -10 21 2 13 -3 22 -11 22 -8 0 -27 15 -44 34 -16 19
-39 37 -50 40 -14 5 -18 13 -15 27 5 19 4 20 -15 10 -15 -8 -29 -8 -49 0 -15
5 -50 9 -77 8 -27 -2 -51 1 -53 6 -2 6 48 11 122 12 72 1 123 -2 120 -7z
m-392 -22 c3 -10 8 -10 21 1 11 9 20 11 24 5 4 -5 35 -9 69 -8 57 1 61 0 52
-18 -5 -10 -13 -18 -18 -18 -4 0 -16 -18 -26 -40 -19 -42 -52 -80 -39 -45 5
12 4 16 -4 11 -6 -3 -13 -2 -17 3 -3 5 3 15 12 21 16 10 16 10 -3 5 -17 -4
-27 2 -44 30 -12 19 -25 35 -30 35 -4 0 -10 7 -14 15 -3 8 -1 15 3 15 5 0 11
-6 14 -12z m-83 -62 c0 -2 -9 -6 -20 -9 -11 -3 -20 -1 -20 4 0 5 9 9 20 9 11
0 20 -2 20 -4z m425 -27 c45 -27 82 -70 90 -106 6 -28 4 -31 -14 -26 -12 3
-21 10 -21 15 0 5 5 6 10 3 6 -3 10 -1 10 4 0 6 -9 11 -20 11 -39 0 -140 33
-140 46 0 9 -13 12 -40 11 -49 -2 -58 7 -35 33 37 41 101 45 160 9z m-365 -11
c0 -5 -7 -8 -15 -8 -8 0 -15 5 -15 10 0 7 -6 7 -19 1 -19 -10 -31 -6 -31 12 0
5 7 7 15 4 8 -4 17 -2 20 3 6 10 45 -9 45 -22z m-156 -25 c-3 -27 -7 -54 -10
-60 -2 -8 5 -13 17 -13 16 0 19 -4 14 -22 -15 -51 -75 -77 -62 -28 2 9 0 25
-5 34 -7 12 -5 16 7 16 10 0 15 9 15 29 0 42 11 91 21 91 5 0 6 -21 3 -47z
m65 -10 c-13 -15 -12 -15 8 -5 38 21 49 12 19 -14 -27 -24 -31 -25 -42 -9 -7
9 -17 14 -23 10 -12 -7 -15 17 -4 28 3 4 17 7 31 7 22 0 23 -2 11 -17z m99 1
c12 -4 22 -12 22 -19 0 -16 -33 -30 -38 -16 -2 7 -10 8 -21 1 -26 -13 -34 0
-14 22 18 20 19 20 51 12z m192 -13 c0 -6 -4 -13 -10 -16 -5 -3 -10 1 -10 9 0
9 5 16 10 16 6 0 10 -4 10 -9z m410 -31 c0 -5 -2 -10 -4 -10 -3 0 -8 5 -11 10
-3 6 -1 10 4 10 6 0 11 -4 11 -10z m-27 -68 c-18 -9 -33 -22 -33 -29 0 -7 -4
-13 -10 -13 -5 0 -6 8 -3 17 5 13 2 15 -11 10 -12 -5 -16 -3 -14 5 5 14 39 25
78 25 23 0 23 -1 -7 -15z m-135 -26 c-10 -7 -19 -23 -21 -36 -4 -26 -35 -53
-50 -43 -6 3 -34 6 -64 5 -63 -1 -80 13 -20 16 88 4 112 8 113 20 1 7 2 18 3
25 1 13 42 36 51 29 3 -2 -3 -9 -12 -16z m-458 5 c0 -5 -7 -14 -15 -21 -16
-14 -18 -10 -9 14 6 17 24 22 24 7z m50 -1 c0 -5 -5 -10 -11 -10 -5 0 -7 5 -4
10 3 6 8 10 11 10 2 0 4 -4 4 -10z m340 -7 c0 -15 -23 -43 -31 -38 -5 4 -7 11
-4 16 4 5 -1 9 -9 9 -9 0 -16 -7 -16 -16 0 -10 -7 -14 -17 -12 -10 2 -17 10
-15 16 1 7 -5 12 -13 12 -8 0 -15 -7 -15 -15 0 -8 -7 -15 -15 -15 -9 0 -12 6
-8 16 5 14 1 16 -20 12 -15 -3 -27 -1 -27 3 0 5 6 9 13 10 46 2 122 10 124 13
5 4 53 -5 53 -11z m210 -20 c0 -29 -12 -24 -17 7 -2 11 2 20 7 20 6 0 10 -12
10 -27z m-74 -15 c0 -12 -6 -23 -12 -25 -7 -2 -10 6 -7 22 6 31 21 33 19 3z
m-586 -8 c0 -5 -2 -10 -4 -10 -3 0 -8 5 -11 10 -3 6 -1 10 4 10 6 0 11 -4 11
-10z m45 0 c3 -5 1 -10 -4 -10 -6 0 -11 5 -11 10 0 6 2 10 4 10 3 0 8 -4 11
-10z m50 0 c3 -5 2 -10 -4 -10 -5 0 -13 5 -16 10 -3 6 -2 10 4 10 5 0 13 -4
16 -10z m-47 -45 c28 2 29 -11 1 -20 -13 -5 -25 -2 -31 6 -7 11 -11 11 -15 2
-7 -18 -23 -16 -23 1 0 15 31 27 40 15 3 -3 15 -5 28 -4z m536 -3 c3 -5 -1 -9
-9 -9 -8 0 -12 4 -9 9 3 4 7 8 9 8 2 0 6 -4 9 -8z m-167 -18 c-10 -10 -97 -13
-97 -4 0 5 18 8 40 8 23 0 44 2 47 6 4 3 9 4 11 1 3 -3 3 -8 -1 -11z m133 6
c0 -5 -7 -10 -16 -10 -8 0 -12 5 -9 10 3 6 10 10 16 10 5 0 9 -4 9 -10z m-927
-97 c18 -10 34 -19 36 -21 3 -1 -5 -11 -17 -22 -12 -11 -19 -27 -16 -35 4 -8
2 -15 -4 -15 -13 0 -23 54 -11 58 5 2 9 8 9 13 0 14 -28 11 -33 -3 -7 -22 -19
-1 -12 21 8 25 9 25 48 4z m-33 -103 c0 -5 -2 -10 -4 -10 -3 0 -8 5 -11 10 -3
6 -1 10 4 10 6 0 11 -4 11 -10z m44 -25 c3 -8 1 -15 -5 -15 -6 0 -7 -4 -4 -10
3 -5 2 -10 -4 -10 -5 0 -13 5 -16 10 -3 6 -1 10 5 10 7 0 10 7 6 15 -3 8 -1
15 3 15 5 0 11 -7 15 -15z m-44 -5 c0 -5 -2 -10 -4 -10 -3 0 -8 5 -11 10 -3 6
-1 10 4 10 6 0 11 -4 11 -10z m-50 -20 c0 -5 -4 -10 -10 -10 -5 0 -10 5 -10
10 0 6 5 10 10 10 6 0 10 -4 10 -10z m20 -29 c0 -6 -4 -13 -10 -16 -5 -3 -10
1 -10 9 0 9 5 16 10 16 6 0 10 -4 10 -9z"/>
<path d="M2830 2230 c0 -8 29 -46 30 -40 9 41 8 46 -10 46 -11 0 -20 -3 -20
-6z"/>
<path d="M2904 2233 c-15 -5 -5 -45 9 -40 12 4 18 35 9 41 -4 2 -12 1 -18 -1z"/>
<path d="M2963 2224 c-17 -8 -4 -34 17 -34 10 0 21 -6 23 -12 4 -10 6 -10 6
-1 1 6 -3 14 -9 18 -5 3 -7 12 -3 20 5 15 -10 18 -34 9z"/>
<path d="M3105 1889 c-10 -15 3 -25 16 -12 7 7 7 13 1 17 -6 3 -14 1 -17 -5z"/>
<path d="M3020 1880 c0 -5 5 -10 10 -10 6 0 10 5 10 10 0 6 -4 10 -10 10 -5 0
-10 -4 -10 -10z"/>
<path d="M2560 2590 c8 -5 22 -9 30 -9 10 0 8 3 -5 9 -27 12 -43 12 -25 0z"/>
<path d="M2616 2575 c-3 -8 -12 -15 -21 -15 -8 0 -15 -4 -15 -10 0 -5 -9 -10
-20 -10 -11 0 -20 -4 -20 -10 0 -15 21 -12 42 7 12 10 18 12 18 4 0 -16 17 -5
30 19 6 11 6 21 1 24 -5 3 -11 -1 -15 -9z"/>
<path d="M2891 2513 c-1 -8 -21 -10 -67 -7 -88 7 -76 -10 18 -26 83 -14 195
-8 253 14 l40 15 -41 -2 c-23 -1 -39 -6 -36 -11 3 -5 -3 -6 -13 -3 -9 4 -23 3
-29 -2 -6 -5 -25 -6 -43 -4 -24 4 -30 9 -26 22 3 10 2 12 -4 5 -16 -20 -42
-24 -46 -6 -3 9 -5 12 -6 5z"/>
<path d="M2575 2490 c-4 -6 -15 -8 -25 -5 -10 3 -21 2 -23 -3 -3 -4 7 -9 23
-10 26 -2 49 13 37 24 -3 3 -8 0 -12 -6z"/>
<path d="M2480 2476 c0 -2 7 -6 15 -10 8 -3 15 -1 15 4 0 6 -7 10 -15 10 -8 0
-15 -2 -15 -4z"/>
<path d="M2710 2450 c0 -5 7 -10 16 -10 8 0 12 5 9 10 -3 6 -10 10 -16 10 -5
0 -9 -4 -9 -10z"/>
<path d="M2760 2445 c0 -18 19 -40 26 -32 4 4 0 15 -9 24 -9 10 -17 13 -17 8z"/>
<path d="M3245 2440 c-3 -5 -1 -10 4 -10 6 0 11 5 11 10 0 6 -2 10 -4 10 -3 0
-8 -4 -11 -10z"/>
<path d="M3065 2420 c-3 -5 -2 -10 4 -10 5 0 13 5 16 10 3 6 2 10 -4 10 -5 0
-13 -4 -16 -10z"/>
<path d="M3194 2415 c-4 -8 -14 -15 -23 -15 -17 0 -41 -18 -41 -32 0 -8 63 23
68 35 2 4 13 7 25 7 18 0 19 2 7 10 -21 14 -30 12 -36 -5z"/>
<path d="M2890 2405 c0 -9 6 -12 15 -9 8 4 15 7 15 9 0 2 -7 5 -15 9 -9 3 -15
0 -15 -9z"/>
<path d="M2995 2410 c3 -5 13 -10 21 -10 8 0 14 5 14 10 0 6 -9 10 -21 10 -11
0 -17 -4 -14 -10z"/>
<path d="M2945 2400 c4 -6 11 -8 16 -5 14 9 11 15 -7 15 -8 0 -12 -5 -9 -10z"/>
<path d="M2667 2360 c3 -11 9 -20 14 -20 5 0 9 9 9 20 0 11 -6 20 -14 20 -9 0
-12 -7 -9 -20z"/>
<path d="M3202 2358 c-16 -16 -15 -28 1 -28 7 0 13 9 13 20 0 11 -1 20 -1 20
-1 0 -6 -5 -13 -12z"/>
<path d="M2170 2344 c-95 -41 -145 -137 -104 -199 18 -28 44 -33 44 -10 0 8 8
15 19 15 26 0 42 22 31 40 -6 8 -9 26 -8 40 1 25 1 25 5 2 4 -23 5 -23 24 -6
10 9 19 22 19 27 0 5 8 16 18 24 16 14 16 14 -1 9 -11 -4 -16 -2 -12 5 4 6 14
8 22 5 18 -7 45 12 37 25 -3 5 7 9 23 9 27 1 27 1 9 15 -25 19 -81 18 -126 -1z"/>
<path d="M2766 2325 c4 -8 10 -15 14 -15 4 0 10 7 14 15 4 10 -1 15 -14 15
-13 0 -18 -5 -14 -15z"/>
<path d="M2963 2324 c-14 -6 -6 -34 11 -34 6 0 12 9 12 20 0 21 -2 22 -23 14z"/>
<path d="M2210 2114 c0 -8 5 -12 10 -9 6 4 8 11 5 16 -9 14 -15 11 -15 -7z"/>
<path d="M2211 2044 c0 -11 3 -14 6 -6 3 7 2 16 -1 19 -3 4 -6 -2 -5 -13z"/>
<path d="M2206 1983 c-3 -8 -1 -11 4 -8 6 3 10 1 10 -5 0 -6 5 -8 10 -5 15 9
12 32 -5 32 -8 0 -17 -7 -19 -14z"/>
<path d="M2135 1960 c3 -5 8 -10 11 -10 2 0 4 5 4 10 0 6 -5 10 -11 10 -5 0
-7 -4 -4 -10z"/>
<path d="M2124 1898 c-4 -7 -3 -8 4 -4 7 4 12 2 12 -4 0 -6 5 -8 10 -5 11 7 4
25 -10 25 -5 0 -12 -5 -16 -12z"/>
<path d="M2080 1866 c0 -2 9 -6 20 -9 11 -3 20 -1 20 4 0 5 -9 9 -20 9 -11 0
-20 -2 -20 -4z"/>
<path d="M2050 1820 c0 -5 7 -7 15 -4 8 4 15 8 15 10 0 2 -7 4 -15 4 -8 0 -15
-4 -15 -10z"/>
<path d="M2063 1766 c5 -16 44 -20 44 -4 0 7 -11 14 -24 14 -14 1 -22 -3 -20
-10z"/>
<path d="M2200 1629 c0 -5 5 -7 10 -4 6 3 10 8 10 11 0 2 -4 4 -10 4 -5 0 -10
-5 -10 -11z"/>
<path d="M2295 1581 c-3 -5 -1 -12 5 -16 5 -3 10 1 10 9 0 18 -6 21 -15 7z"/>
<path d="M2358 1563 c7 -3 16 -2 19 1 4 3 -2 6 -13 5 -11 0 -14 -3 -6 -6z"/>
<path d="M3270 1560 c-13 -8 -12 -10 3 -10 9 0 17 5 17 10 0 12 -1 12 -20 0z"/>
<path d="M2330 1540 c0 -5 5 -10 10 -10 6 0 10 5 10 10 0 6 -4 10 -10 10 -5 0
-10 -4 -10 -10z"/>
<path d="M2370 1511 c0 -6 5 -13 10 -16 6 -3 10 1 10 9 0 9 -4 16 -10 16 -5 0
-10 -4 -10 -9z"/>
<path d="M2416 1482 c-3 -6 -1 -14 5 -17 15 -10 25 3 12 16 -7 7 -13 7 -17 1z"/>
<path d="M2373 1466 c21 -16 22 -26 2 -26 -8 0 -15 -6 -15 -13 0 -23 12 -27
29 -10 15 15 16 15 19 0 4 -20 28 -22 35 -3 6 15 -11 36 -29 36 -6 0 -14 7
-18 15 -3 8 -13 15 -23 15 -17 -1 -17 -1 0 -14z"/>
<path d="M2490 1460 c0 -5 5 -10 10 -10 6 0 10 5 10 10 0 6 -4 10 -10 10 -5 0
-10 -4 -10 -10z"/>
<path d="M3136 1461 c-4 -7 -5 -15 -2 -18 9 -9 19 4 14 18 -4 11 -6 11 -12 0z"/>
<path d="M2470 1440 c9 -16 8 -20 -5 -20 -9 0 -15 -6 -12 -12 2 -7 18 -12 36
-12 17 1 31 -1 31 -5 0 -14 98 -61 113 -56 9 4 16 -2 20 -15 3 -12 10 -19 16
-15 6 3 11 1 11 -6 0 -6 15 -28 33 -48 53 -61 74 -87 84 -105 9 -17 11 -17 26
-1 10 9 15 21 11 26 -6 11 24 24 34 15 3 -4 0 -11 -8 -16 -8 -5 -12 -11 -9
-15 3 -3 19 5 34 17 29 22 40 26 110 32 22 2 43 4 47 5 4 1 5 8 2 16 -5 12
-10 13 -20 4 -21 -17 -64 -3 -64 21 0 23 18 27 26 5 13 -33 41 -11 35 28 0 4
10 7 23 7 14 0 27 4 31 10 4 6 15 6 30 0 14 -5 25 -6 25 -1 0 4 20 7 44 6 34
-2 46 2 56 19 12 18 11 19 -2 9 -8 -7 -17 -10 -21 -7 -3 3 -14 1 -24 -4 -11
-6 -25 -7 -33 -2 -9 5 -19 5 -27 -1 -8 -7 -18 -7 -32 1 -16 8 -21 8 -21 -1 0
-7 -9 -9 -24 -5 -18 4 -28 1 -35 -11 -8 -14 -14 -16 -28 -7 -21 13 -38 0 -45
-32 -2 -10 -12 -20 -22 -22 -14 -3 -17 0 -13 12 4 11 1 16 -12 16 -26 0 -44
-23 -29 -38 8 -8 5 -9 -11 -5 -12 3 -20 11 -17 18 6 17 -31 26 -44 11 -5 -7
-7 -16 -3 -19 3 -4 -2 -7 -11 -7 -12 0 -16 5 -12 15 5 15 -3 19 -35 16 -9 -1
-21 13 -29 34 -8 20 -19 34 -26 31 -7 -3 -14 4 -17 15 -3 12 -11 17 -20 13
-17 -6 -19 26 -2 38 6 5 6 8 -2 8 -7 0 -16 -7 -21 -16 -8 -14 -10 -14 -21 0
-8 10 -22 14 -36 10 -15 -4 -24 0 -28 11 -5 12 -11 14 -26 6 -14 -8 -19 -7
-18 2 1 30 -4 47 -13 47 -7 0 -7 -6 0 -20z"/>
<path d="M3527 1443 c-10 -9 -9 -33 1 -33 4 0 8 9 8 20 0 23 0 22 -9 13z"/>
<path d="M2535 1430 c-3 -5 1 -10 10 -10 9 0 13 5 10 10 -3 6 -8 10 -10 10 -2
0 -7 -4 -10 -10z"/>
<path d="M3450 1415 c0 -8 4 -15 10 -15 5 0 7 7 4 15 -4 8 -8 15 -10 15 -2 0
-4 -7 -4 -15z"/>
<path d="M3603 1415 c-3 -9 -3 -19 1 -22 3 -4 6 1 6 10 0 8 6 18 13 20 9 4 9
6 -1 6 -7 1 -15 -6 -19 -14z"/>
<path d="M3068 1413 c6 -2 18 -2 25 0 6 3 1 5 -13 5 -14 0 -19 -2 -12 -5z"/>
<path d="M3425 1410 c-3 -5 -1 -10 4 -10 6 0 11 5 11 10 0 6 -2 10 -4 10 -3 0
-8 -4 -11 -10z"/>
<path d="M3037 1403 c-4 -3 -7 -11 -7 -17 0 -6 5 -5 12 2 6 6 9 14 7 17 -3 3
-9 2 -12 -2z"/>
<path d="M3552 1401 c-7 -4 -12 -14 -10 -22 2 -9 -4 -13 -14 -11 -10 2 -18 -2
-18 -8 0 -5 -4 -10 -10 -10 -16 0 -12 21 8 37 16 14 16 14 -1 9 -10 -3 -23 -6
-28 -6 -5 0 -9 -7 -9 -15 0 -8 -7 -15 -15 -15 -8 0 -15 -4 -15 -10 0 -5 -5
-10 -11 -10 -6 0 -8 8 -4 19 3 11 0 21 -8 24 -10 4 -13 -1 -9 -19 3 -17 0 -24
-12 -24 -9 0 -16 -4 -16 -10 0 -5 -7 -7 -15 -4 -8 4 -15 1 -15 -4 0 -19 18
-22 34 -6 9 9 24 13 33 10 8 -4 21 -2 28 4 7 6 25 9 39 6 14 -3 28 -1 31 4 2
4 25 11 50 14 46 7 72 26 36 26 -11 0 -23 -5 -27 -11 -4 -8 -9 -7 -15 2 -6 9
-3 18 8 27 19 13 6 17 -15 3z"/>
<path d="M3630 1400 c0 -5 5 -10 10 -10 6 0 10 5 10 10 0 6 -4 10 -10 10 -5 0
-10 -4 -10 -10z"/>
<path d="M3123 1393 c-17 -6 -17 -33 0 -33 7 0 13 9 14 20 1 11 1 20 0 19 -1
0 -8 -3 -14 -6z"/>
<path d="M3233 1393 c-15 -5 -17 -23 -4 -23 5 0 11 7 15 15 3 8 4 15 3 14 -1
0 -8 -3 -14 -6z"/>
<path d="M3319 1363 c-13 -16 -12 -17 4 -4 16 13 21 21 13 21 -2 0 -10 -8 -17
-17z"/>
<path d="M3057 1363 c-4 -3 -7 -11 -7 -17 0 -6 5 -5 12 2 6 6 9 14 7 17 -3 3
-9 2 -12 -2z"/>
<path d="M3360 1360 c0 -5 4 -10 9 -10 6 0 13 5 16 10 3 6 -1 10 -9 10 -9 0
-16 -4 -16 -10z"/>
<path d="M2966 1351 c-12 -5 -15 -10 -9 -14 6 -4 16 0 23 8 14 17 13 17 -14 6z"/>
<path d="M3280 1335 c0 -8 4 -15 10 -15 5 0 7 7 4 15 -4 8 -8 15 -10 15 -2 0
-4 -7 -4 -15z"/>
<path d="M3630 1338 c1 -20 29 -53 37 -44 5 4 0 14 -11 21 -10 8 -15 18 -11
24 3 6 1 11 -4 11 -6 0 -11 -6 -11 -12z"/>
<path d="M2900 1320 c0 -5 5 -10 11 -10 5 0 7 5 4 10 -3 6 -8 10 -11 10 -2 0
-4 -4 -4 -10z"/>
<path d="M3320 1318 c0 -7 -6 -25 -14 -40 -10 -18 -11 -29 -3 -37 7 -7 7 -14
-1 -24 -9 -10 -8 -17 1 -26 7 -7 8 -14 2 -19 -12 -8 -14 -82 -2 -82 4 0 7 5 7
11 0 6 7 9 15 5 19 -7 19 1 0 20 -8 9 -13 25 -10 37 2 12 7 50 9 84 2 34 7 67
11 72 3 6 1 11 -4 11 -6 0 -11 -6 -11 -12z"/>
<path d="M3572 1318 c-7 -7 -12 -15 -12 -20 0 -12 28 2 34 18 7 17 -6 18 -22
2z"/>
<path d="M2522 1309 c2 -7 10 -15 17 -17 8 -3 12 1 9 9 -2 7 -10 15 -17 17 -8
3 -12 -1 -9 -9z"/>
<path d="M2770 1311 c0 -14 18 -23 31 -15 8 4 7 9 -2 15 -18 11 -29 11 -29 0z"/>
<path d="M3541 1304 c0 -11 3 -14 6 -6 3 7 2 16 -1 19 -3 4 -6 -2 -5 -13z"/>
<path d="M2576 1294 c-4 -10 1 -22 10 -29 17 -12 12 -35 -7 -35 -6 0 -7 5 -4
10 3 6 -1 10 -9 10 -9 0 -16 -5 -16 -11 0 -6 -7 -8 -16 -5 -8 3 -13 2 -9 -3 3
-5 0 -22 -6 -38 -7 -15 -14 -46 -16 -68 -3 -22 -9 -43 -16 -47 -18 -11 -20
-58 -2 -64 8 -3 12 -10 9 -15 -3 -5 -12 -2 -21 7 -11 11 -19 12 -26 5 -16 -16
-47 -13 -53 4 -4 8 -9 13 -13 11 -4 -3 -22 3 -40 11 -28 14 -32 20 -27 45 4
23 2 28 -13 28 -19 0 -22 -14 -8 -37 10 -15 3 -16 -21 -4 -9 5 -28 13 -42 19
-109 44 -159 76 -161 101 0 9 -6 -4 -13 -29 -7 -26 -20 -57 -28 -70 -9 -14
-19 -41 -23 -60 -4 -19 -12 -41 -18 -48 -5 -7 -11 -28 -13 -47 -2 -20 -6 -41
-10 -47 -11 -17 -13 -68 -3 -74 5 -3 7 -9 4 -14 -8 -13 17 -50 33 -50 9 0 11
-8 8 -22 -3 -13 -3 -17 0 -10 3 6 13 12 23 12 9 0 23 -6 30 -12 10 -11 15 -9
28 7 15 19 15 19 9 -7 -6 -27 8 -49 17 -26 3 10 7 10 20 0 9 -8 21 -11 26 -7
7 3 8 0 5 -10 -5 -11 -2 -14 12 -8 11 4 15 3 10 -5 -3 -6 3 -16 14 -22 12 -6
30 -20 41 -31 11 -11 26 -18 32 -16 18 6 21 56 3 63 -8 3 -12 12 -9 20 5 14
-44 40 -55 29 -4 -3 4 -8 16 -12 12 -3 22 -10 22 -15 0 -11 -10 -5 -65 35 -22
17 -32 27 -22 23 13 -4 17 -2 14 6 -2 7 -12 13 -23 13 -10 1 -18 6 -16 13 1 7
-2 12 -8 12 -5 0 -10 5 -10 11 0 5 3 8 8 5 4 -2 12 7 19 20 6 14 7 26 2 30 -5
3 -9 0 -9 -6 0 -7 -7 -9 -16 -6 -11 4 -15 2 -11 -7 3 -8 0 -14 -7 -14 -8 0
-10 11 -8 29 3 16 0 28 -7 28 -6 0 -11 10 -11 22 0 19 3 18 25 -12 28 -38 33
-29 9 19 -13 25 -20 31 -37 26 -19 -5 -20 -5 -4 5 9 6 17 18 17 26 0 8 -4 13
-9 10 -5 -3 -11 1 -15 9 -3 8 -1 17 5 20 5 4 6 12 2 18 -4 7 -7 35 -8 63 0 42
3 50 15 46 10 -4 9 2 -5 18 -16 18 -9 15 31 -11 28 -19 47 -35 42 -37 -12 -5
-10 -30 3 -38 7 -4 16 1 21 10 10 18 48 22 48 5 0 -6 -7 -9 -15 -6 -11 5 -12
1 -4 -20 8 -23 8 -24 -6 -13 -8 7 -15 9 -15 6 0 -4 -15 1 -32 10 -63 33 -68
34 -68 24 0 -5 23 -23 51 -39 28 -16 45 -31 38 -33 -9 -3 -9 -9 1 -28 13 -23
13 -24 20 -5 4 11 6 23 3 28 -8 13 14 7 27 -8 9 -11 9 -15 1 -15 -9 0 -9 -5
-1 -20 10 -19 9 -20 -17 -14 -15 4 -35 12 -43 18 -28 21 -60 36 -60 29 0 -14
15 -29 34 -36 11 -4 16 -13 12 -22 -6 -17 2 -45 14 -45 4 0 6 11 5 25 -2 14
-2 25 -1 25 16 0 96 -34 96 -41 0 -5 -5 -9 -10 -9 -7 0 -6 -8 1 -22 12 -22 12
-22 19 -3 4 11 6 23 3 28 -7 13 8 8 23 -8 9 -8 11 -15 5 -15 -5 0 -13 -9 -16
-21 -6 -18 -9 -19 -28 -6 -29 18 -101 32 -92 18 3 -6 10 -11 15 -11 5 0 21 -5
35 -10 23 -9 25 -13 15 -25 -9 -11 -10 -18 -1 -29 6 -7 9 -21 5 -30 -5 -12 -2
-15 9 -10 21 8 44 -5 28 -16 -9 -5 -9 -10 1 -17 10 -8 18 -5 31 14 13 17 15
23 5 22 -25 -6 -58 21 -58 46 0 25 23 35 35 15 3 -6 17 -10 31 -10 13 0 24 -4
24 -10 0 -5 -8 -10 -17 -10 -13 0 -14 -3 -6 -11 9 -9 19 -6 41 9 24 17 28 26
24 52 -4 30 -3 31 16 19 18 -12 19 -15 6 -22 -13 -7 -12 -12 8 -29 18 -16 19
-20 5 -15 -10 4 -27 2 -38 -4 -18 -9 -18 -12 -4 -32 21 -30 19 -37 -9 -24 -13
7 -22 16 -19 22 2 5 -5 -1 -16 -14 -26 -29 -28 -98 -5 -147 19 -40 62 -77 80
-70 16 6 87 -13 95 -25 6 -10 83 14 106 33 8 6 19 20 24 31 9 16 8 18 -9 13
-13 -4 -22 -1 -26 9 -8 21 20 31 41 14 15 -12 16 -11 11 8 -4 13 -3 25 2 28
12 7 -1 57 -22 88 -11 15 -24 25 -29 21 -5 -3 -9 -2 -8 3 3 20 -2 25 -16 13
-13 -10 -15 -9 -15 9 0 14 -9 25 -26 31 -32 12 -34 12 -34 0 0 -5 6 -10 14
-10 8 0 17 -7 20 -16 5 -13 4 -14 -7 -6 -8 7 -17 9 -20 6 -3 -4 -9 5 -13 20
-3 14 -12 26 -20 26 -17 0 -17 -5 -3 -33 9 -20 9 -20 -4 -5 -8 10 -17 14 -22
10 -4 -4 -5 2 -3 13 3 17 12 20 53 20 57 0 86 -10 80 -28 -3 -6 10 -22 29 -34
41 -26 81 -103 72 -138 -5 -19 -2 -25 9 -25 9 0 14 4 11 8 -2 4 5 9 17 9 20 2
20 1 4 -8 -18 -10 -18 -12 0 -32 9 -12 11 -16 3 -9 -19 17 -33 15 -26 -4 3 -8
2 -12 -4 -9 -6 3 -10 14 -10 23 0 13 -5 12 -20 -8 -13 -18 -15 -27 -7 -32 8
-5 4 -8 -9 -8 -11 0 -25 -5 -31 -11 -5 -5 -37 -18 -69 -28 -41 -12 -53 -19
-41 -24 9 -3 17 -2 17 3 0 13 37 13 45 0 3 -5 15 -10 27 -10 15 0 18 -3 10
-13 -6 -7 -7 -19 -3 -26 6 -10 10 -9 14 3 4 9 16 16 27 16 12 0 18 -4 15 -10
-3 -5 -1 -18 4 -27 10 -17 10 -17 11 0 0 12 8 17 28 17 21 0 24 -2 12 -10 -16
-10 -8 -14 24 -10 10 1 22 -3 26 -9 3 -7 14 -9 23 -5 9 3 14 10 11 15 -9 15
11 10 32 -7 16 -13 16 -15 2 -10 -10 3 -18 1 -18 -5 0 -5 8 -12 18 -15 9 -3
25 -10 34 -15 10 -5 26 -5 40 1 22 8 22 9 2 9 -11 1 -29 8 -40 16 -16 13 -17
16 -4 25 13 8 13 10 -2 10 -10 0 -18 4 -18 10 0 6 9 6 26 0 14 -6 29 -8 34 -5
5 3 20 1 34 -5 18 -6 26 -6 26 1 0 6 4 8 9 5 5 -3 30 -8 57 -11 26 -4 51 -8
55 -11 4 -2 10 0 14 5 12 20 50 -5 50 -33 1 -21 -4 -26 -22 -26 -25 0 -30 19
-11 38 14 14 0 16 -20 4 -7 -5 -10 -16 -6 -25 4 -13 1 -17 -14 -17 -27 0 -37
17 -22 35 10 12 9 15 -5 15 -9 0 -19 -9 -22 -20 -3 -12 -14 -20 -25 -20 -15 0
-19 5 -15 20 4 15 0 20 -15 20 -15 0 -18 -5 -13 -20 4 -14 2 -20 -9 -20 -8 0
-14 -8 -13 -19 1 -15 4 -17 18 -8 12 7 22 7 31 1 14 -10 187 -10 248 1 19 3
58 7 86 9 65 3 84 14 59 33 -11 7 -28 13 -39 13 -16 0 -17 -3 -8 -9 11 -7 10
-10 -3 -15 -26 -9 -28 -8 -21 17 15 49 15 60 -1 75 -14 15 -14 17 6 26 11 5
21 13 21 18 0 5 -4 6 -10 3 -5 -3 -10 3 -10 14 0 12 7 21 15 21 8 0 15 5 15
11 0 6 -7 9 -15 5 -20 -7 -19 -1 2 20 16 16 16 16 -6 9 -21 -6 -22 -5 -16 17
4 12 12 24 16 26 5 2 9 8 9 13 0 6 -4 7 -10 4 -5 -3 -10 0 -10 9 0 8 6 16 13
19 6 2 9 7 6 11 -4 4 -14 0 -23 -9 -10 -11 -16 -12 -16 -4 0 6 9 20 20 29 13
11 17 21 10 25 -5 3 -10 1 -10 -6 0 -9 -3 -10 -10 -3 -12 12 -2 54 14 54 6 0
2 7 -8 15 -16 12 -17 18 -8 27 15 15 16 32 2 23 -5 -3 -10 -2 -10 4 0 5 -3 17
-7 27 -4 11 -3 15 5 10 6 -3 13 -2 16 3 7 11 -22 23 -35 15 -5 -3 -9 -12 -9
-20 0 -16 -26 -19 -35 -4 -3 6 -1 10 4 10 6 0 11 5 11 10 0 7 -6 7 -20 0 -34
-18 -25 -40 18 -41 29 0 33 -2 17 -8 -11 -5 -23 -7 -27 -5 -4 3 -9 0 -13 -6
-8 -13 -45 -13 -45 1 0 5 6 7 13 3 8 -6 8 -3 -1 9 -8 9 -11 21 -7 27 3 5 2 10
-4 10 -5 0 -13 -12 -18 -27 l-10 -28 -12 23 c-19 35 -28 26 -28 -27 0 -45 1
-48 17 -38 16 10 17 13 3 34 -19 28 -4 30 25 3 20 -19 61 -23 72 -8 5 6 60 20
60 15 0 -1 -4 -17 -9 -35 -7 -22 -6 -32 2 -32 8 0 8 -3 0 -11 -13 -13 -95 -21
-88 -8 3 4 1 10 -5 14 -5 3 -10 -3 -10 -14 0 -12 0 -24 0 -28 0 -5 11 -8 25
-8 14 -1 25 3 25 7 0 4 12 8 28 8 25 0 27 -3 27 -37 0 -33 -3 -38 -34 -45 -27
-7 -35 -6 -46 9 -7 10 -11 22 -8 27 4 5 1 6 -4 3 -9 -6 -20 -48 -24 -97 -2
-21 -20 -41 -30 -34 -5 3 -9 0 -9 -5 0 -6 -7 -11 -15 -11 -8 0 -15 -4 -15 -10
0 -13 17 -13 25 0 4 7 14 2 27 -12 11 -13 15 -24 9 -26 -6 -2 -11 -13 -11 -24
0 -16 3 -18 13 -9 8 6 18 7 22 3 5 -4 5 -1 0 7 -4 8 -2 17 6 22 11 7 10 9 -3
9 -10 0 -18 6 -18 13 0 8 9 13 23 11 12 -1 25 -3 30 -3 11 -1 9 -31 -3 -31 -5
0 -7 -6 -5 -13 3 -6 19 -13 36 -13 25 -1 28 1 15 8 -14 8 -15 12 -4 26 11 13
11 15 -4 9 -13 -5 -18 -1 -18 12 0 19 24 22 49 6 9 -5 12 -4 7 3 -3 6 -2 13 4
17 5 3 10 -3 10 -13 0 -11 -6 -22 -14 -25 -8 -3 -12 -15 -9 -30 6 -29 -12 -44
-32 -27 -11 9 -15 9 -15 1 0 -6 -7 -11 -15 -11 -8 0 -15 6 -15 13 0 8 -3 8 -8
2 -10 -15 -55 -16 -64 -2 -6 9 -8 9 -8 0 0 -7 -4 -13 -10 -13 -14 0 -6 40 9
50 8 4 12 13 10 19 -3 7 -13 6 -33 -4 -16 -9 -37 -15 -45 -14 -40 4 -59 -3
-69 -23 -10 -20 -11 -20 -9 -3 1 14 -6 21 -28 25 -29 6 -29 6 -6 12 14 4 20
11 16 19 -5 7 -3 10 6 7 8 -3 13 -11 11 -18 -2 -9 4 -11 20 -6 13 3 35 6 51 6
31 0 36 15 7 23 -11 3 -20 2 -20 -2 0 -4 -9 -7 -20 -8 -11 -1 -20 2 -20 7 0
11 25 19 68 22 22 2 31 7 28 15 -7 17 26 17 42 1 9 -9 12 -9 12 -1 0 16 -18
26 -52 28 -21 2 -28 -1 -24 -11 7 -18 -2 -18 -21 1 -8 8 -19 12 -24 9 -13 -8
-7 28 6 39 6 4 3 7 -7 5 -9 -2 -16 2 -15 7 1 6 8 9 15 9 6 -1 12 2 12 8 0 5 4
7 9 4 5 -3 20 0 35 7 18 10 22 17 14 25 -8 8 -15 7 -25 -4 -8 -8 -25 -14 -37
-14 -13 0 -29 -7 -36 -15 -8 -9 -21 -13 -36 -9 -14 4 -31 1 -40 -7 -12 -9 -17
-10 -23 -1 -4 6 -19 9 -35 6 -15 -2 -34 0 -42 7 -8 6 -14 7 -14 2 0 -11 -40
-11 -57 0 -7 5 -13 5 -13 0 0 -4 -4 -1 -10 7 -11 18 3 43 26 46 62 6 118 15
126 20 5 3 16 0 24 -7 12 -10 15 -10 12 2 -2 8 3 13 11 11 8 -2 18 3 22 9 6
10 11 10 23 0 14 -11 16 -11 16 3 0 10 4 15 9 12 5 -4 22 -1 37 4 30 12 44 6
26 -12 -19 -19 -14 -28 18 -28 17 0 30 5 30 11 0 5 -5 7 -11 3 -7 -4 -10 -1
-7 7 3 8 -1 20 -9 27 -7 8 -11 18 -8 23 9 13 -9 11 -23 -3 -9 -9 -15 -8 -28 8
-14 18 -15 18 -3 -5 10 -22 10 -23 -15 -19 -14 3 -26 1 -26 -3 0 -5 -7 -9 -15
-9 -8 0 -15 7 -15 15 0 8 -7 15 -15 15 -9 0 -12 6 -8 16 5 14 3 15 -15 5 -32
-17 -29 -43 3 -35 32 8 32 -8 0 -23 -19 -8 -25 -8 -25 0 0 7 -4 6 -9 -2 -5 -8
-16 -11 -25 -8 -9 4 -16 2 -16 -3 0 -14 -27 -12 -33 3 -4 10 -6 10 -6 0 -1 -7
-6 -13 -11 -13 -6 0 -8 12 -6 26 4 23 2 25 -22 20 -15 -3 -34 -1 -42 5 -12 8
-9 9 13 5 15 -4 27 -3 27 2 0 4 17 7 38 7 20 0 43 6 50 13 7 6 22 12 33 12 10
0 19 4 19 8 0 5 7 9 15 10 8 1 22 3 30 4 8 1 15 6 15 11 0 5 7 7 15 4 8 -4 17
-2 21 4 3 6 12 8 20 5 8 -3 14 0 14 6 0 9 3 9 12 0 9 -9 9 -15 0 -24 -18 -18
-15 -25 12 -30 33 -7 56 8 27 17 -12 3 -19 10 -16 15 3 5 1 11 -5 15 -5 3 -10
16 -10 28 0 19 -1 19 -12 4 -7 -9 -24 -18 -38 -20 -14 -1 -34 -8 -45 -14 -11
-6 -28 -9 -37 -8 -10 2 -18 -1 -18 -6 0 -5 -7 -9 -15 -9 -8 0 -15 4 -15 9 0
11 39 26 58 23 6 -2 12 2 12 8 0 5 -7 10 -16 10 -11 0 -14 5 -10 16 8 22 -15
13 -28 -12 -20 -36 -52 -42 -39 -7 4 10 2 14 -5 9 -6 -3 -13 -2 -16 3 -4 5 8
13 26 16 18 4 36 12 39 17 4 6 18 11 33 11 14 1 26 8 26 16 0 8 6 11 16 7 15
-6 74 22 74 34 0 4 -15 7 -32 7 -18 0 -27 -2 -20 -4 23 -8 12 -25 -13 -21 -14
3 -25 1 -25 -4 0 -5 -9 -6 -20 -3 -14 4 -20 2 -18 -7 2 -7 -3 -12 -9 -10 -7 1
-13 -2 -13 -8 0 -5 -16 -12 -35 -16 -19 -3 -38 -10 -41 -15 -8 -14 -24 -10
-24 6 0 8 -6 15 -14 15 -19 0 -16 38 3 45 8 3 19 1 25 -5 7 -7 6 -10 -2 -10
-6 0 -9 -6 -6 -13 5 -13 64 -18 64 -5 0 5 -7 8 -16 8 -10 0 -14 6 -10 15 3 8
0 14 -6 12 -6 -1 -13 4 -16 12 -3 9 0 11 7 7 7 -4 17 -3 24 3 7 5 19 6 26 2 9
-6 10 -10 2 -15 -14 -9 -5 -26 14 -26 8 0 13 9 12 20 -1 11 -5 20 -9 20 -4 0
-8 4 -8 9 0 14 52 23 63 12 8 -8 5 -11 -8 -11 -14 0 -16 -3 -8 -11 8 -8 16 -8
30 0 10 6 14 11 8 11 -5 0 -3 5 5 11 13 8 12 9 -4 7 -35 -5 -28 19 7 26 40 7
92 46 63 46 -10 0 -25 -7 -34 -16 -15 -15 -16 -15 -23 2 -7 17 -8 17 -8 2 -1
-10 -7 -18 -15 -18 -8 0 -16 -6 -19 -12 -3 -10 -8 -10 -21 1 -14 12 -16 12
-10 -3 4 -11 1 -16 -10 -16 -9 0 -16 -4 -16 -10 0 -5 -7 -10 -15 -10 -8 0 -15
5 -15 10 0 6 -9 10 -21 10 -14 0 -19 5 -16 13 3 8 -1 14 -9 14 -7 0 -11 -4 -8
-9 3 -4 -2 -8 -12 -8 -13 0 -14 -3 -5 -14 6 -7 23 -11 39 -9 l27 5 -25 -21
c-28 -23 -40 -26 -40 -11 0 6 -8 10 -18 10 -25 0 -34 10 -22 24 6 8 3 12 -9
12 -12 0 -17 -5 -13 -15 4 -10 1 -13 -11 -8 -9 3 -17 2 -17 -3 0 -14 23 -25
48 -21 12 1 22 -3 22 -9 0 -7 -7 -10 -15 -6 -8 3 -15 1 -15 -4 0 -6 5 -10 10
-10 6 0 10 -5 10 -12 0 -9 -3 -9 -12 0 -7 7 -20 12 -29 12 -10 0 -20 6 -22 13
-4 8 -8 8 -14 2 -12 -15 -47 -12 -68 5 -11 9 -16 10 -11 3 4 -8 2 -13 -5 -13
-7 0 -9 10 -6 29 4 20 2 31 -8 35 -8 3 -15 2 -15 -2 0 -4 -9 -8 -20 -8 -13 0
-20 6 -18 16 2 10 12 14 28 12 20 -3 23 -1 13 9 -16 16 -17 55 -2 65 8 4 9 0
4 -15 -4 -14 -2 -21 7 -21 7 0 14 12 15 28 3 49 11 83 27 107 21 31 20 42 -3
71 -16 20 -20 22 -25 8z m-21 -126 c-11 -15 -15 -17 -12 -5 4 10 1 17 -6 18
-7 0 -3 4 8 8 28 12 30 6 10 -21z m-292 -111 c4 3 7 1 7 -4 0 -6 -6 -13 -12
-16 -10 -3 -10 -9 -1 -24 11 -19 10 -20 -13 -9 -25 11 -29 23 -18 50 5 12 10
14 19 6 6 -5 15 -7 18 -3z m42 -23 c13 -5 14 -8 3 -15 -10 -7 -11 -12 0 -29
17 -28 15 -32 -8 -18 -12 8 -20 24 -20 40 0 30 1 31 25 22z m75 -43 c3 -2 -3
-1 -14 3 -12 4 -17 2 -13 -6 3 -7 8 -22 12 -33 6 -19 6 -19 -8 -3 -8 10 -17
15 -20 11 -4 -3 -7 3 -7 15 0 12 5 22 11 22 5 0 7 6 3 13 -7 10 13 -1 36 -22z
m175 -29 c-6 -7 -35 18 -35 31 0 5 9 2 20 -8 11 -10 18 -20 15 -23z m-285 -2
c-7 -4 -4 -14 10 -31 15 -16 20 -19 16 -7 -6 21 6 30 29 22 13 -5 14 -8 3 -15
-10 -7 -10 -12 5 -26 9 -9 17 -13 17 -8 0 22 17 35 35 29 17 -7 17 -8 2 -13
-16 -6 -16 -8 -2 -26 9 -11 18 -15 21 -10 12 27 23 37 33 31 7 -5 7 -14 0 -30
-8 -17 -17 -22 -35 -18 -13 2 -24 8 -24 13 0 5 -13 9 -30 9 -16 0 -30 5 -30
10 0 6 -6 10 -13 10 -22 0 -67 24 -67 37 0 25 12 42 27 36 10 -4 11 -8 3 -13z
m150 10 c-8 -5 -10 -10 -5 -10 6 0 3 -4 -5 -9 -22 -15 -36 0 -15 16 11 7 24
13 29 13 6 0 4 -5 -4 -10z m94 -6 c5 -14 4 -15 -9 -4 -17 14 -19 20 -6 20 5 0
12 -7 15 -16z m-29 -23 c3 -5 1 -12 -4 -15 -5 -3 -11 1 -15 9 -6 16 9 21 19 6z
m228 -17 c-25 -11 -2 -33 28 -27 17 3 29 1 29 -4 0 -14 -64 -26 -68 -14 -2 6
-9 8 -15 5 -7 -2 -13 4 -14 15 -1 11 6 22 15 24 23 6 40 7 25 1z m-76 -24 c14
-11 20 -20 14 -20 -7 0 -21 9 -33 20 -12 11 -18 20 -14 20 4 0 19 -9 33 -20z
m-137 -10 c6 -11 8 -20 6 -20 -3 0 -10 9 -16 20 -6 11 -8 20 -6 20 3 0 10 -9
16 -20z m-5 -31 c11 -17 -1 -21 -15 -4 -8 9 -8 15 -2 15 6 0 14 -5 17 -11z
m83 -1 c-6 -16 -38 -23 -38 -9 0 6 7 7 17 4 11 -4 14 -3 9 5 -4 7 -2 12 4 12
7 0 10 -6 8 -12z m66 -4 c9 -8 16 -12 16 -7 0 13 49 8 62 -5 9 -9 9 -12 0 -12
-6 0 -9 -7 -6 -15 4 -9 11 -15 18 -14 28 3 47 -2 41 -11 -4 -6 -11 -8 -16 -4
-5 3 -16 0 -24 -6 -12 -10 -16 -9 -20 2 -4 10 -16 14 -36 12 -45 -5 -73 30
-60 74 2 5 11 1 25 -14z m158 -17 c-3 -25 0 -27 23 -21 16 4 25 2 25 -6 0 -7
-7 -10 -15 -6 -8 3 -15 1 -15 -4 0 -6 -7 -10 -15 -10 -8 0 -15 5 -15 10 0 6
-9 10 -20 10 -25 0 -26 17 -2 23 13 4 11 5 -5 6 -37 2 -27 26 10 26 29 0 32
-3 29 -28z m-779 16 c-7 -2 -19 -2 -25 0 -7 3 -2 5 12 5 14 0 19 -2 13 -5z
m54 -15 c-3 -8 -6 -5 -6 6 -1 11 2 17 5 13 3 -3 4 -12 1 -19z m278 -4 c0 -10
4 -26 9 -34 8 -12 7 -13 -5 -3 -8 6 -25 13 -38 15 -14 1 -27 10 -29 18 -4 13
-3 13 11 2 13 -11 16 -10 22 8 8 25 30 21 30 -6z m100 16 c3 -5 1 -10 -4 -10
-6 0 -11 5 -11 10 0 6 2 10 4 10 3 0 8 -4 11 -10z m135 -40 c0 -5 -2 -10 -4
-10 -3 0 -8 5 -11 10 -3 6 -1 10 4 10 6 0 11 -4 11 -10z m-559 -13 c-6 -8 -8
-17 -4 -20 3 -4 1 -7 -5 -7 -14 0 -14 2 -6 24 3 9 11 16 16 16 7 0 6 -5 -1
-13z m54 -17 c3 -5 1 -10 -4 -10 -6 0 -11 5 -11 10 0 6 2 10 4 10 3 0 8 -4 11
-10z m575 -20 c0 -5 -4 -10 -9 -10 -6 0 -13 5 -16 10 -3 6 1 10 9 10 9 0 16
-4 16 -10z m-217 -13 c4 3 7 1 7 -6 0 -8 -7 -11 -15 -7 -20 7 -19 -4 2 -34 16
-25 16 -25 -4 -7 -11 9 -23 14 -26 10 -9 -8 -9 20 -1 41 5 12 10 14 19 6 6 -5
15 -7 18 -3z m34 -37 c1 -10 -2 -22 -7 -25 -6 -4 -10 6 -8 24 2 32 10 33 15 1z
m259 11 c17 -13 21 -22 13 -26 -6 -4 -15 -2 -19 5 -4 7 -12 10 -17 7 -5 -3
-10 3 -10 14 -2 24 3 24 33 0z m-382 -36 c-3 -6 4 -19 14 -28 19 -17 19 -17
15 7 -4 21 -2 24 17 19 13 -4 17 -8 11 -13 -13 -7 -4 -40 10 -40 5 0 9 9 9 19
0 15 5 18 22 13 12 -3 17 -7 10 -10 -6 -2 -12 -10 -12 -17 0 -15 27 -28 41
-19 6 3 17 0 26 -8 12 -10 17 -10 20 -1 4 10 9 10 24 0 20 -12 26 -37 9 -37
-5 0 -10 5 -10 11 0 8 -4 8 -12 2 -22 -17 -46 -12 -40 9 3 14 0 17 -12 12 -9
-3 -13 -11 -10 -16 4 -6 -4 -3 -17 5 -20 13 -27 13 -41 3 -10 -7 -15 -16 -11
-19 3 -4 1 -7 -5 -7 -6 0 -14 5 -17 11 -4 6 -17 15 -29 20 -18 8 -17 9 7 4 15
-3 27 -1 27 5 0 5 -6 10 -13 10 -7 0 -22 7 -33 16 -10 8 -13 12 -5 8 10 -5 12
-3 7 5 -5 7 -15 10 -23 7 -11 -5 -13 -2 -9 10 3 8 6 19 6 23 0 4 6 8 14 8 8 0
12 -5 10 -12z m192 -17 c12 -14 13 -18 3 -10 -9 6 -19 9 -22 5 -4 -3 -7 1 -7
10 0 22 3 21 26 -5z m-316 -12 c0 -3 -4 -8 -10 -11 -5 -3 -10 -1 -10 4 0 6 5
11 10 11 6 0 10 -2 10 -4z m1064 -79 c-3 -9 -10 -14 -15 -11 -11 6 -11 1 -3
-20 3 -9 11 -13 18 -10 6 2 1 -3 -12 -12 -27 -20 -74 -25 -84 -10 -6 7 -12 6
-19 -4 -8 -12 -9 -10 -4 9 4 13 8 31 10 40 4 27 30 19 28 -9 -3 -22 1 -25 27
-25 17 0 30 3 30 8 0 4 -7 7 -16 7 -10 0 -14 5 -10 16 3 8 2 12 -4 9 -6 -3
-10 1 -10 10 0 9 5 13 10 10 6 -3 10 -1 10 5 0 7 7 10 15 6 8 -3 15 0 15 6 0
8 3 9 10 2 6 -6 8 -18 4 -27z m-504 13 c0 -5 -7 -10 -17 -10 -14 0 -14 -2 2
-20 20 -22 8 -28 -14 -7 -11 10 -13 10 -7 0 4 -7 3 -13 -2 -13 -5 0 -12 9 -15
20 -4 17 5 25 51 39 1 1 2 -3 2 -9z m118 -13 c8 -6 12 -5 12 5 0 9 12 14 34
15 30 1 33 -2 32 -27 -1 -19 -10 -32 -28 -43 -25 -15 -26 -14 -22 6 2 11 9 24
16 29 8 5 4 6 -12 4 -14 -3 -31 -5 -39 -5 -11 -1 -11 -4 -1 -16 7 -8 9 -15 5
-15 -4 0 -4 -6 1 -13 5 -7 2 -6 -6 3 -14 15 -17 15 -30 2 -12 -13 -16 -12 -31
7 -12 14 -19 17 -22 9 -3 -9 -7 -6 -13 6 -5 13 -3 21 4 24 7 2 9 8 6 14 -4 6
1 8 15 3 11 -3 21 -2 21 3 0 11 39 4 58 -11z m-446 -19 c13 -16 18 -18 15 -7
-4 13 -1 15 14 12 10 -3 17 -9 14 -13 -3 -5 -1 -11 5 -15 5 -3 10 -1 10 4 0 6
12 11 28 11 19 0 23 -3 13 -9 -8 -5 -10 -14 -6 -21 6 -10 2 -11 -16 -6 -13 4
-31 9 -39 10 -21 3 -70 36 -70 47 0 15 11 10 32 -13z m-37 -18 c3 -5 -1 -10
-9 -10 -9 0 -16 5 -16 10 0 6 4 10 9 10 6 0 13 -4 16 -10z m355 -30 c0 -5 -7
-7 -15 -4 -8 4 -15 8 -15 10 0 2 7 4 15 4 8 0 15 -4 15 -10z m57 -6 c-3 -3
-12 -4 -19 -1 -8 3 -5 6 6 6 11 1 17 -2 13 -5z m-187 -14 c0 -6 11 -8 25 -4
20 5 25 2 31 -20 7 -28 24 -36 24 -11 0 19 7 19 28 -2 13 -13 13 -15 2 -11 -8
2 -21 -2 -29 -10 -12 -12 -16 -11 -25 6 -8 15 -15 18 -27 11 -13 -7 -18 -4
-22 12 -3 12 -10 18 -15 15 -6 -3 -12 1 -16 9 -3 9 0 15 9 15 8 0 15 -5 15
-10z m247 4 c-3 -3 -12 -4 -19 -1 -8 3 -5 6 6 6 11 1 17 -2 13 -5z m-120 -10
c-3 -3 -12 -4 -19 -1 -8 3 -5 6 6 6 11 1 17 -2 13 -5z m56 -11 c-7 -2 -19 -2
-25 0 -7 3 -2 5 12 5 14 0 19 -2 13 -5z m70 -10 c-7 -2 -21 -2 -30 0 -10 3 -4
5 12 5 17 0 24 -2 18 -5z m-87 -25 c15 -19 16 -20 2 -9 -16 12 -22 9 -19 -11
0 -5 -3 -8 -9 -8 -5 0 -10 11 -10 25 0 31 11 32 36 3z m63 -17 c0 -10 -2 -11
-6 -3 -2 6 -9 10 -14 6 -5 -3 -9 2 -9 10 0 10 6 13 15 10 8 -4 15 -14 14 -23z
m61 5 c9 -12 8 -15 -9 -13 -12 1 -21 7 -21 14 0 17 15 16 30 -1z m130 -6 c18
-16 20 -20 7 -20 -10 0 -17 4 -17 10 0 5 -7 7 -15 4 -11 -5 -13 -2 -9 10 8 20
6 20 34 -4z m-50 -10 c0 -5 -4 -10 -10 -10 -5 0 -10 5 -10 10 0 6 5 10 10 10
6 0 10 -4 10 -10z m280 -24 c0 -8 -7 -17 -16 -20 -9 -4 -14 -13 -10 -21 4 -11
-2 -15 -19 -15 -27 0 -32 9 -13 28 14 14 0 16 -20 3 -7 -4 -12 -14 -10 -22 2
-8 -7 -15 -19 -17 -16 -2 -23 2 -23 12 0 9 5 16 11 16 5 0 7 5 4 10 -4 6 -11
8 -16 5 -5 -4 -9 1 -9 9 0 11 6 13 30 6 19 -5 32 -5 36 2 4 5 17 8 30 5 13 -2
24 0 24 4 0 5 5 9 10 9 6 0 10 -6 10 -14z"/>
<path d="M2640 821 c12 -21 46 -21 46 0 0 13 -7 17 -27 16 -20 -2 -25 -6 -19
-16z"/>
<path d="M2415 610 c-3 -5 -1 -10 4 -10 6 0 11 5 11 10 0 6 -2 10 -4 10 -3 0
-8 -4 -11 -10z"/>
<path d="M2848 571 c-14 -5 -15 -9 -3 -31 l13 -25 7 28 c9 33 6 37 -17 28z"/>
<path d="M2720 1300 c0 -5 7 -10 15 -10 8 0 15 5 15 10 0 6 -7 10 -15 10 -8 0
-15 -4 -15 -10z"/>
<path d="M2848 1303 c7 -3 16 -2 19 1 4 3 -2 6 -13 5 -11 0 -14 -3 -6 -6z"/>
<path d="M3235 1268 c0 -21 4 -38 10 -38 20 0 -11 -18 -42 -23 -23 -5 -33 -3
-33 6 0 8 -3 9 -8 1 -4 -6 -19 -13 -35 -16 -24 -5 -27 -3 -21 16 6 18 5 19 -8
9 -8 -7 -18 -10 -21 -6 -4 3 -7 2 -7 -4 0 -19 25 -32 58 -31 18 1 32 6 32 12
0 7 3 7 8 -1 5 -8 19 -9 47 -3 28 6 42 5 47 -3 4 -7 8 -10 8 -7 7 39 6 69 -1
64 -5 -3 -9 2 -9 10 0 9 7 16 15 16 8 0 15 5 15 11 0 6 -7 8 -16 5 -11 -4 -15
-2 -11 7 3 7 -2 13 -12 13 -13 0 -17 -9 -16 -38z"/>
<path d="M3495 1301 c-10 -17 12 -21 25 -6 10 12 10 15 -3 15 -9 0 -18 -4 -22
-9z"/>
<path d="M3437 1294 c-8 -8 1 -24 14 -24 5 0 9 7 9 15 0 15 -12 20 -23 9z"/>
<path d="M3610 1280 c0 -16 -4 -20 -15 -16 -8 3 -15 1 -15 -4 0 -6 -5 -10 -11
-10 -5 0 -7 5 -4 10 3 6 -1 10 -9 10 -10 0 -13 -6 -9 -16 5 -14 3 -15 -15 -5
-18 10 -22 9 -22 -4 0 -9 -5 -13 -11 -10 -6 4 -8 13 -5 21 3 8 1 14 -3 14 -9
0 -21 -24 -21 -40 0 -11 88 -1 113 12 9 5 17 6 17 2 0 -3 7 -1 15 6 8 7 12 16
9 21 -3 5 3 6 12 2 12 -4 15 -2 12 8 -8 24 -38 23 -38 -1z"/>
<path d="M2500 1281 c0 -6 5 -13 10 -16 6 -3 10 -1 10 5 0 6 5 8 12 4 7 -4 8
-3 4 4 -9 14 -36 16 -36 3z"/>
<path d="M3360 1278 c-21 -9 -22 -12 -7 -15 23 -6 47 3 47 17 0 12 -8 12 -40
-2z"/>
<path d="M3198 1269 c-22 -13 -24 -41 -3 -32 9 3 13 8 11 11 -3 3 -1 11 5 19
13 15 10 16 -13 2z"/>
<path d="M3725 1270 c-3 -5 -1 -10 4 -10 6 0 11 5 11 10 0 6 -2 10 -4 10 -3 0
-8 -4 -11 -10z"/>
<path d="M3067 1263 c-22 -6 -17 -27 8 -31 11 -3 15 0 10 8 -4 7 -1 16 6 21
15 9 6 10 -24 2z"/>
<path d="M3133 1263 c-19 -7 -16 -33 4 -33 9 0 13 3 10 7 -4 3 -2 12 4 20 12
13 5 16 -18 6z"/>
<path d="M3404 1235 c-2 -20 3 -25 21 -25 27 0 40 14 29 31 -4 8 -9 7 -15 -2
-7 -11 -9 -10 -9 4 0 27 -25 20 -26 -8z"/>
<path d="M3371 1231 c-1 -8 -9 -20 -18 -27 -17 -12 -17 -13 0 -19 24 -10 22
-29 -3 -22 -11 3 -20 1 -20 -4 0 -5 14 -9 30 -9 32 0 43 26 15 36 -12 5 -13
10 -4 20 6 7 9 19 6 26 -4 10 -6 10 -6 -1z"/>
<path d="M3627 1233 c-4 -3 -7 -11 -7 -17 0 -6 5 -5 12 2 6 6 9 14 7 17 -3 3
-9 2 -12 -2z"/>
<path d="M3730 1218 c0 -17 -3 -19 -9 -10 -7 11 -10 10 -15 -3 -9 -24 -8 -28
9 -21 8 3 15 1 15 -5 0 -6 5 -7 11 -3 9 5 10 -1 5 -22 -7 -28 -6 -28 10 -12
17 17 17 18 0 37 -11 12 -13 21 -7 25 12 7 4 36 -10 36 -5 0 -9 -10 -9 -22z"/>
<path d="M2190 1220 c0 -5 5 -10 11 -10 5 0 7 5 4 10 -3 6 -8 10 -11 10 -2 0
-4 -4 -4 -10z"/>
<path d="M3330 1219 c0 -5 5 -7 10 -4 6 3 10 8 10 11 0 2 -4 4 -10 4 -5 0 -10
-5 -10 -11z"/>
<path d="M2134 1205 c22 -17 40 -20 32 -6 -3 5 -16 11 -28 14 -22 6 -22 5 -4
-8z"/>
<path d="M2279 1207 c7 -9 17 -17 22 -17 5 0 37 -13 71 -29 79 -37 113 -47
104 -32 -4 6 -12 11 -18 11 -7 0 -30 9 -52 19 -23 10 -59 27 -81 37 -22 9 -44
20 -50 23 -5 2 -4 -3 4 -12z"/>
<path d="M3570 1205 c-7 -9 -11 -18 -8 -20 3 -3 11 1 18 10 7 9 11 18 8 20 -3
3 -11 -1 -18 -10z"/>
<path d="M3645 1199 c3 -3 -2 -12 -10 -19 -8 -7 -15 -9 -15 -4 0 5 -7 0 -15
-10 -8 -11 -15 -16 -15 -12 0 5 -7 3 -15 -4 -12 -10 -15 -10 -15 0 0 10 -3 10
-15 0 -8 -6 -18 -9 -24 -6 -5 3 -12 0 -14 -6 -4 -10 -6 -10 -6 0 -1 15 -31 16
-31 1 0 -6 -6 -9 -14 -6 -8 3 -17 1 -20 -6 -2 -7 -5 -4 -5 6 -1 21 -21 23 -21
2 0 -8 -4 -15 -8 -15 -5 0 -19 -9 -32 -20 -13 -11 -18 -20 -11 -20 7 0 19 6
26 14 13 12 70 23 163 31 39 4 89 32 108 61 12 18 12 21 0 21 -9 0 -13 -4 -11
-8z"/>
<path d="M2090 1189 c0 -5 5 -7 10 -4 6 3 10 8 10 11 0 2 -4 4 -10 4 -5 0 -10
-5 -10 -11z"/>
<path d="M3396 1185 c4 -8 8 -15 10 -15 2 0 4 7 4 15 0 8 -4 15 -10 15 -5 0
-7 -7 -4 -15z"/>
<path d="M3500 1185 c0 -8 4 -15 9 -15 5 0 11 7 15 15 3 9 0 15 -9 15 -8 0
-15 -7 -15 -15z"/>
<path d="M2190 1180 c20 -13 33 -13 25 0 -3 6 -14 10 -23 10 -15 0 -15 -2 -2
-10z"/>
<path d="M3425 1180 c-3 -5 1 -10 9 -10 9 0 16 5 16 10 0 6 -4 10 -9 10 -6 0
-13 -4 -16 -10z"/>
<path d="M3787 1153 c2 -21 6 -43 8 -49 2 -6 -5 -24 -16 -40 -23 -35 -25 -51
-4 -34 8 7 15 18 15 25 0 7 7 18 15 25 17 14 19 7 5 -20 -7 -13 -7 -26 -1 -37
5 -10 16 -34 25 -55 25 -57 19 -101 -11 -77 -10 9 -13 8 -13 -3 0 -10 -10 -14
-37 -11 -25 1 -33 -1 -24 -6 11 -7 11 -13 -3 -32 -9 -13 -16 -28 -16 -33 0 -6
8 1 17 14 26 37 46 51 55 37 6 -9 8 -9 8 1 0 6 9 12 21 12 14 0 19 -5 16 -14
-3 -8 -1 -17 6 -20 9 -5 9 -7 0 -12 -20 -9 -15 -24 5 -18 16 5 16 5 0 -9 -10
-8 -18 -20 -18 -27 0 -9 3 -10 14 -1 11 9 15 6 18 -14 4 -18 1 -25 -10 -25
-10 0 -13 -7 -8 -22 3 -13 6 -26 6 -30 0 -5 7 -8 15 -8 18 0 20 -16 3 -23 -7
-3 -3 -6 10 -6 27 -1 29 20 2 44 -11 10 -20 23 -20 29 0 6 4 5 9 -3 5 -7 10
-9 13 -5 7 13 2 69 -6 83 -5 7 -4 17 2 23 6 6 5 19 -5 39 -8 15 -16 49 -18 74
-2 26 -8 52 -14 59 -6 7 -13 33 -15 57 -3 24 -6 46 -7 49 -1 3 -3 10 -4 15 -3
16 -35 85 -39 85 -2 0 -2 -17 1 -37z"/>
<path d="M2130 1166 c0 -24 17 -28 23 -6 3 13 0 20 -9 20 -8 0 -14 -6 -14 -14z"/>
<path d="M2235 1160 c3 -5 8 -10 11 -10 2 0 4 5 4 10 0 6 -5 10 -11 10 -5 0
-7 -4 -4 -10z"/>
<path d="M2981 1154 c7 -9 7 -19 0 -33 -11 -20 2 -41 14 -22 3 6 13 7 22 4 11
-4 14 -3 9 5 -4 7 -14 12 -23 12 -13 0 -13 3 -3 15 7 9 19 14 27 11 7 -3 13
-2 13 3 0 5 -16 11 -35 13 -26 3 -32 1 -24 -8z"/>
<path d="M3188 1156 c-18 -13 -24 -36 -10 -36 14 0 27 15 28 33 1 9 1 17 0 17
0 0 -9 -7 -18 -14z"/>
<path d="M3247 1162 c-5 -7 -6 -21 -2 -31 5 -16 -1 -22 -28 -29 -19 -5 -46 -8
-61 -7 -17 2 -26 -2 -26 -11 0 -8 -4 -14 -10 -14 -5 0 -10 -5 -10 -11 0 -8 4
-8 14 0 8 7 27 14 43 16 15 2 28 4 28 5 0 1 12 4 27 6 25 4 27 2 23 -26 -5
-40 8 -46 22 -9 6 16 7 27 2 23 -5 -3 -9 6 -9 20 0 14 5 26 10 26 6 0 10 5 10
11 0 5 -4 8 -9 4 -5 -3 -11 5 -13 17 -2 16 -5 19 -11 10z"/>
<path d="M2181 1138 c16 -32 16 -32 21 -3 4 20 1 25 -14 25 -16 0 -17 -3 -7
-22z"/>
<path d="M2260 1150 c0 -5 5 -10 10 -10 6 0 10 5 10 10 0 6 -4 10 -10 10 -5 0
-10 -4 -10 -10z"/>
<path d="M3067 1149 c-16 -9 -18 -52 -3 -67 3 -3 1 -11 -6 -19 -9 -11 -7 -12
7 -7 14 6 16 3 10 -14 -4 -16 -2 -22 8 -22 11 0 15 10 14 35 -1 20 -6 35 -13
35 -6 0 -14 9 -17 19 -3 13 -1 18 9 14 8 -3 12 3 11 16 -1 12 -1 21 -2 21 0 0
-8 -5 -18 -11z"/>
<path d="M3120 1134 c0 -12 -5 -24 -12 -26 -9 -3 -9 -6 0 -12 7 -4 12 -2 12 3
0 6 6 11 13 11 6 0 13 11 13 23 1 14 -4 24 -12 24 -8 0 -14 -10 -14 -23z"/>
<path d="M2230 1120 c0 -26 17 -34 23 -11 3 12 -1 22 -9 25 -9 3 -14 -2 -14
-14z"/>
<path d="M2325 1130 c3 -5 8 -10 11 -10 2 0 4 5 4 10 0 6 -5 10 -11 10 -5 0
-7 -4 -4 -10z"/>
<path d="M3626 1124 c-8 -22 -8 -24 7 -24 7 0 13 9 14 20 2 24 -12 27 -21 4z"/>
<path d="M3760 1116 c0 -9 5 -16 10 -16 6 0 10 4 10 9 0 6 -4 13 -10 16 -5 3
-10 -1 -10 -9z"/>
<path d="M2360 1113 c8 -3 21 -10 28 -16 8 -7 12 -5 12 7 0 11 -8 16 -27 15
-16 0 -22 -3 -13 -6z"/>
<path d="M3668 1103 c-16 -23 -55 -53 -44 -35 4 6 3 12 -2 12 -6 0 -13 -7 -16
-16 -3 -8 -10 -12 -16 -9 -5 3 -10 0 -10 -7 0 -9 -3 -9 -10 2 -9 13 -11 13
-19 1 -13 -20 -51 -25 -51 -7 0 7 7 19 15 26 8 7 15 16 15 21 0 5 -7 9 -15 9
-8 0 -15 -9 -15 -20 0 -10 -8 -24 -17 -29 -11 -6 -13 -11 -5 -11 7 0 11 -4 7
-10 -3 -5 -12 -7 -20 -3 -9 3 -15 -1 -16 -8 0 -8 -4 -5 -9 6 -7 19 -8 19 -15
2 -4 -10 -5 -20 -2 -23 11 -11 152 18 193 39 23 11 49 34 59 49 18 31 14 38
-7 11z"/>
<path d="M2100 1096 c0 -8 4 -17 9 -20 10 -7 23 19 14 28 -11 11 -23 6 -23 -8z"/>
<path d="M3567 1103 c-13 -12 -7 -22 12 -20 11 0 17 6 14 14 -6 14 -16 17 -26
6z"/>
<path d="M2410 1090 c0 -5 5 -10 11 -10 5 0 7 5 4 10 -3 6 -8 10 -11 10 -2 0
-4 -4 -4 -10z"/>
<path d="M3475 1090 c3 -5 8 -10 11 -10 2 0 4 5 4 10 0 6 -5 10 -11 10 -5 0
-7 -4 -4 -10z"/>
<path d="M3725 1074 c-9 -14 -14 -28 -12 -31 3 -2 10 5 17 16 6 12 18 21 26
21 8 0 12 5 9 10 -10 16 -22 12 -40 -16z"/>
<path d="M2445 1080 c4 -6 11 -8 16 -5 14 9 11 15 -7 15 -8 0 -12 -5 -9 -10z"/>
<path d="M2916 1083 c-11 -11 -6 -23 8 -23 8 0 17 4 20 9 7 10 -19 23 -28 14z"/>
<path d="M3436 1075 c-3 -9 0 -15 9 -15 8 0 15 7 15 15 0 8 -4 15 -9 15 -5 0
-11 -7 -15 -15z"/>
<path d="M2344 1065 c3 -23 16 -31 26 -15 14 22 12 30 -9 30 -11 0 -18 -6 -17
-15z"/>
<path d="M2856 1065 c-10 -7 -15 -18 -12 -24 10 -16 32 -3 32 19 0 11 0 20 -1
20 0 0 -8 -7 -19 -15z"/>
<path d="M2720 1060 c0 -5 5 -10 10 -10 6 0 10 5 10 10 0 6 -4 10 -10 10 -5 0
-10 -4 -10 -10z"/>
<path d="M3361 1061 c-14 -9 -5 -18 18 -17 18 1 27 26 9 26 -7 0 -19 -4 -27
-9z"/>
<path d="M2400 1044 c0 -21 19 -26 36 -10 8 9 14 16 12 17 -25 6 -48 3 -48 -7z"/>
<path d="M2575 1050 c-3 -5 -1 -10 4 -10 6 0 11 5 11 10 0 6 -2 10 -4 10 -3 0
-8 -4 -11 -10z"/>
<path d="M3197 1049 c-9 -6 -15 -14 -12 -19 8 -13 32 -2 32 15 0 8 -1 15 -1
15 -1 0 -9 -5 -19 -11z"/>
<path d="M3314 1049 c-3 -6 -2 -15 4 -21 6 -6 11 -2 15 11 5 22 -7 29 -19 10z"/>
<path d="M3675 1049 c-4 -6 -5 -12 -2 -15 2 -3 7 2 10 11 7 17 1 20 -8 4z"/>
<path d="M3136 1034 c-9 -25 -7 -36 7 -31 6 2 12 8 12 13 0 5 4 15 8 22 5 7 3
12 -6 12 -8 0 -18 -7 -21 -16z"/>
<path d="M2085 1030 c3 -5 8 -10 11 -10 2 0 4 5 4 10 0 6 -5 10 -11 10 -5 0
-7 -4 -4 -10z"/>
<path d="M3002 1028 c-18 -18 -16 -44 2 -29 7 6 21 9 30 5 9 -3 16 -1 16 5 0
6 -7 11 -16 11 -8 0 -12 5 -9 10 9 14 -8 13 -23 -2z"/>
<path d="M3255 1010 c-10 -11 -16 -23 -13 -26 7 -6 48 27 48 38 0 14 -17 8
-35 -12z"/>
<path d="M3630 1015 c0 -8 5 -15 10 -15 6 0 10 7 10 15 0 8 -4 15 -10 15 -5 0
-10 -7 -10 -15z"/>
<path d="M2120 1000 c6 -11 13 -20 15 -20 3 0 5 9 5 20 0 11 -7 20 -15 20 -13
0 -14 -4 -5 -20z"/>
<path d="M2620 1008 c0 -5 -4 -7 -9 -4 -5 4 -7 -3 -4 -14 3 -11 14 -20 25 -20
11 0 16 4 12 11 -3 6 -1 15 6 19 8 5 5 9 -9 13 -12 3 -21 1 -21 -5z"/>
<path d="M3379 1018 c-8 -27 -5 -39 8 -36 9 2 18 9 21 16 2 8 -2 10 -14 5 -12
-4 -15 -3 -10 5 4 7 5 12 2 12 -3 0 -6 -1 -7 -2z"/>
<path d="M3780 1008 c0 -11 -5 -15 -14 -12 -9 3 -17 -3 -21 -15 -3 -12 -11
-21 -16 -21 -5 0 -9 -5 -9 -12 0 -6 10 -2 23 9 12 11 27 19 34 16 17 -6 25 14
14 34 -10 17 -10 17 -11 1z"/>
<path d="M3074 987 c4 -16 1 -27 -7 -30 -8 -4 -7 -6 3 -6 8 0 21 3 29 8 11 7
9 13 -9 31 l-23 23 7 -26z"/>
<path d="M3174 997 c5 -15 2 -17 -13 -12 -14 4 -23 0 -30 -14 -14 -26 -14 -31
2 -26 8 4 12 -8 12 -40 0 -44 0 -44 30 -39 16 3 32 8 35 12 3 4 14 8 25 9 46
6 59 11 63 23 3 8 0 10 -8 5 -10 -6 -12 -1 -7 23 7 32 2 37 -27 26 -13 -5 -14
-9 -5 -20 8 -10 8 -14 0 -14 -6 0 -11 -5 -11 -11 0 -5 5 -7 12 -3 7 5 8 3 3
-5 -4 -7 -15 -11 -24 -8 -9 2 -22 -2 -29 -9 -7 -7 -19 -11 -28 -7 -12 4 -8 9
14 20 17 8 32 23 35 34 4 16 2 17 -14 9 -10 -6 -18 -16 -16 -22 1 -7 -7 -14
-17 -16 -15 -3 -17 0 -12 13 4 11 0 23 -11 31 -16 12 -15 13 15 14 17 0 32 5
32 11 0 6 7 9 15 5 8 -3 15 -1 15 3 0 14 -28 21 -34 8 -3 -9 -8 -8 -16 3 -10
13 -11 12 -6 -3z"/>
<path d="M3311 1001 c-12 -8 -12 -12 -2 -24 7 -9 11 -21 10 -29 -3 -23 1 -38
9 -38 4 0 9 14 10 30 1 17 -2 30 -8 30 -5 0 -10 5 -10 10 0 6 7 10 15 10 8 0
15 5 15 10 0 12 -20 13 -39 1z"/>
<path d="M3577 993 c-10 -9 -9 -23 2 -23 5 0 11 7 15 15 5 15 -5 20 -17 8z"/>
<path d="M3660 985 c0 -8 -4 -15 -10 -15 -5 0 -10 -4 -10 -10 0 -5 7 -10 15
-10 14 0 20 12 16 33 -1 5 3 6 8 3 5 -4 12 -2 16 4 3 5 -3 10 -14 10 -12 0
-21 -7 -21 -15z"/>
<path d="M3509 980 c-1 -5 -2 -15 -3 -22 -2 -21 -27 -20 -33 1 -3 12 -11 20
-17 18 -15 -5 -14 -33 2 -29 6 1 12 -2 12 -8 0 -5 8 -10 18 -11 9 0 4 -5 -13
-10 -20 -6 -32 -5 -37 4 -6 9 -8 9 -8 0 0 -7 -6 -13 -14 -13 -8 0 -17 -6 -19
-12 -4 -10 -6 -10 -6 0 -1 6 -6 12 -11 12 -6 0 -4 -13 5 -30 14 -27 14 -30 -3
-39 -15 -9 -15 -10 5 -11 26 0 41 19 22 30 -10 7 -10 11 0 24 7 9 18 13 23 10
5 -3 22 -1 37 5 15 7 47 13 72 15 62 4 100 21 92 42 -6 15 -7 15 -18 1 -8 -11
-16 -12 -28 -6 -12 7 -22 4 -37 -11 -11 -11 -24 -20 -30 -20 -15 0 -12 26 5
40 8 7 15 16 15 21 0 12 -30 11 -31 -1z m76 -40 c3 -5 1 -10 -4 -10 -6 0 -11
5 -11 10 0 6 2 10 4 10 3 0 8 -4 11 -10z"/>
<path d="M3421 964 c0 -11 3 -14 6 -6 3 7 2 16 -1 19 -3 4 -6 -2 -5 -13z"/>
<path d="M3370 944 l-25 -15 29 3 c16 2 31 9 34 16 5 15 -6 14 -38 -4z"/>
<path d="M3790 951 c0 -5 -3 -18 -7 -28 -6 -16 -5 -16 10 -4 19 15 23 41 7 41
-5 0 -10 -4 -10 -9z"/>
<path d="M3012 928 c-7 -7 -12 -18 -12 -24 0 -17 53 -11 58 6 3 8 0 10 -8 5
-10 -6 -12 -4 -7 8 7 20 -13 23 -31 5z"/>
<path d="M3085 931 c-6 -11 9 -23 19 -14 9 9 7 23 -3 23 -6 0 -12 -4 -16 -9z"/>
<path d="M3640 909 c0 -6 -7 -8 -16 -5 -8 3 -12 2 -9 -4 9 -15 32 -12 39 5 3
8 1 15 -4 15 -6 0 -10 -5 -10 -11z"/>
<path d="M3700 895 c-7 -13 -17 -22 -22 -19 -4 3 -8 0 -8 -6 0 -6 -4 -9 -9 -6
-5 4 -12 0 -14 -6 -4 -10 -6 -10 -6 0 -1 8 -11 2 -25 -12 -13 -15 -26 -26 -30
-26 -10 0 -7 29 6 50 7 10 9 23 5 27 -9 8 -28 -17 -21 -28 2 -4 0 -10 -5 -14
-6 -3 -8 -12 -5 -19 3 -9 -4 -15 -20 -18 -19 -4 -26 -1 -26 10 0 14 -1 14 -12
0 -18 -22 -52 -33 -45 -14 4 10 1 13 -9 9 -7 -3 -14 -10 -14 -15 0 -6 -9 -8
-21 -5 -21 6 -36 -14 -24 -33 4 -7 12 -5 22 5 9 9 23 13 35 10 10 -4 25 -2 32
4 7 6 37 12 66 12 35 1 53 6 57 16 3 8 12 12 20 9 14 -6 93 64 93 83 0 17 -5
13 -20 -14z"/>
<path d="M2195 899 c-4 -6 0 -18 9 -27 15 -15 16 -15 16 5 0 25 -15 38 -25 22z"/>
<path d="M2954 895 c-4 -8 -11 -12 -16 -9 -6 4 -9 1 -7 -5 3 -7 8 -12 12 -12
4 1 19 1 35 2 l27 0 -25 10 c-20 8 -22 12 -10 19 11 7 11 10 2 10 -7 0 -15 -7
-18 -15z"/>
<path d="M3321 891 c-7 -5 -9 -11 -4 -14 6 -4 19 0 29 8 15 11 16 14 4 15 -8
0 -21 -4 -29 -9z"/>
<path d="M3083 880 c2 -8 12 -16 23 -17 13 -2 15 -1 4 4 -8 3 -19 11 -23 17
-6 7 -7 6 -4 -4z"/>
<path d="M3491 874 c0 -11 3 -14 6 -6 3 7 2 16 -1 19 -3 4 -6 -2 -5 -13z"/>
<path d="M3516 875 c-3 -9 0 -15 9 -15 16 0 20 16 6 24 -5 3 -11 -1 -15 -9z"/>
<path d="M3335 850 c4 -12 2 -20 -6 -20 -9 0 -8 -4 1 -15 7 -8 17 -15 22 -15
6 0 5 7 -2 15 -7 9 -8 15 -2 15 5 0 8 9 5 20 -3 11 -10 20 -15 20 -5 0 -6 -9
-3 -20z"/>
<path d="M3457 864 c-8 -8 1 -24 14 -24 5 0 9 7 9 15 0 15 -12 20 -23 9z"/>
<path d="M3815 841 c-3 -5 -1 -12 5 -16 5 -3 10 1 10 9 0 18 -6 21 -15 7z"/>
<path d="M2180 819 c0 -5 -4 -7 -10 -4 -6 3 -7 -1 -4 -9 6 -16 25 -17 36 -1 4
5 4 13 2 17 -7 12 -24 10 -24 -3z"/>
<path d="M3796 812 c-3 -5 0 -13 6 -15 8 -4 4 -8 -9 -12 -13 -4 -23 -13 -23
-20 0 -16 32 -13 38 3 2 7 8 10 13 6 13 -8 11 10 -4 31 -9 11 -16 14 -21 7z"/>
<path d="M2963 795 c-23 -25 -13 -46 12 -27 12 9 19 42 8 42 -4 -1 -14 -7 -20
-15z"/>
<path d="M3653 795 c-9 -25 4 -29 17 -6 7 15 7 21 0 21 -6 0 -13 -7 -17 -15z"/>
<path d="M2150 780 c0 -5 5 -10 11 -10 5 0 7 5 4 10 -3 6 -8 10 -11 10 -2 0
-4 -4 -4 -10z"/>
<path d="M2269 771 c17 -31 33 -37 29 -10 -2 13 -11 25 -21 27 -16 3 -17 1 -8
-17z"/>
<path d="M3594 776 c-8 -22 3 -33 18 -18 9 9 9 15 0 24 -9 9 -13 7 -18 -6z"/>
<path d="M3684 761 c-10 -16 -21 -28 -26 -25 -5 3 -6 10 -3 15 4 5 1 9 -4 9
-6 0 -11 -7 -11 -15 0 -8 -7 -15 -15 -15 -8 0 -15 -7 -15 -16 0 -10 -4 -12
-12 -7 -17 11 -58 11 -58 0 0 -4 -5 -5 -10 -2 -6 4 -8 11 -5 16 4 5 2 9 -4 9
-5 0 -11 -4 -13 -9 -1 -4 -14 -12 -27 -16 -16 -5 -21 -4 -17 4 4 6 2 11 -3 11
-6 0 -11 -4 -11 -9 0 -5 -9 -11 -20 -14 -13 -3 -18 -1 -13 5 3 7 1 8 -5 4 -7
-4 -12 -18 -12 -32 0 -15 -6 -24 -15 -24 -18 0 -20 20 -2 20 7 0 4 7 -7 15
-11 8 -16 15 -10 15 5 0 2 5 -6 11 -11 8 -12 12 -3 16 9 3 10 10 3 23 -8 14
-6 20 8 23 10 3 7 5 -10 6 -25 1 -27 -1 -23 -36 1 -21 4 -38 5 -38 1 0 4 -29
6 -64 4 -69 18 -97 34 -71 13 21 12 30 -2 25 -8 -3 -14 4 -14 20 -2 24 1 26
32 21 26 -5 34 -2 34 9 0 8 -5 15 -12 15 -9 0 -9 3 0 12 6 6 39 11 72 11 33 0
63 4 66 9 3 5 15 6 25 3 40 -13 154 64 131 87 -7 7 -16 0 -28 -21z"/>
<path d="M3501 764 c0 -11 3 -14 6 -6 3 7 2 16 -1 19 -3 4 -6 -2 -5 -13z"/>
<path d="M3527 766 c-6 -15 1 -26 15 -26 11 0 10 27 -1 34 -5 3 -11 0 -14 -8z"/>
<path d="M2823 755 c-28 -14 -15 -39 14 -28 13 5 18 14 14 24 -5 12 -10 13
-28 4z"/>
<path d="M3218 757 c-17 -14 -12 -30 11 -35 9 -2 11 3 7 14 -4 10 -1 21 6 26
7 4 9 8 3 8 -5 -1 -18 -6 -27 -13z"/>
<path d="M3441 754 c0 -11 3 -14 6 -6 3 7 2 16 -1 19 -3 4 -6 -2 -5 -13z"/>
<path d="M3160 750 c-13 -8 -12 -10 3 -10 9 0 17 5 17 10 0 12 -1 12 -20 0z"/>
<path d="M3465 751 c-3 -6 3 -15 14 -20 16 -9 18 -8 14 9 -6 21 -18 26 -28 11z"/>
<path d="M3391 741 c-9 -6 -10 -11 -2 -15 6 -4 11 -5 11 -1 0 3 9 1 19 -4 16
-9 18 -8 14 9 -6 21 -20 25 -42 11z"/>
<path d="M3801 734 c-7 -8 -10 -18 -6 -22 4 -4 10 -1 12 6 3 6 11 12 19 12 9
0 12 5 9 10 -8 14 -18 12 -34 -6z"/>
<path d="M2185 731 c-3 -6 3 -9 14 -8 11 0 17 5 15 9 -7 11 -22 10 -29 -1z"/>
<path d="M3123 717 c0 -16 5 -27 13 -27 8 0 14 4 14 8 0 5 -6 17 -14 27 -13
18 -13 17 -13 -8z"/>
<path d="M3706 715 c-9 -26 -7 -32 5 -12 6 10 9 21 6 23 -2 3 -7 -2 -11 -11z"/>
<path d="M3816 695 c-5 -13 -10 -14 -27 -4 -13 6 -19 7 -15 1 7 -11 -48 -112
-67 -124 -7 -4 -4 -12 6 -23 10 -9 17 -19 17 -22 0 -11 -35 -32 -52 -33 -10 0
-18 -4 -18 -9 0 -14 -33 -23 -40 -10 -6 8 -9 8 -14 0 -4 -6 -3 -11 3 -11 5 0
8 -11 5 -25 -5 -29 16 -34 36 -10 7 8 21 15 31 15 10 0 21 5 25 11 3 6 14 9
23 6 9 -2 22 2 29 9 7 7 19 11 27 8 9 -4 18 1 21 11 4 9 12 14 19 11 6 -2 18
4 25 14 13 19 36 18 25 -1 -4 -5 -2 -9 2 -9 13 0 34 40 27 51 -4 8 -9 7 -15
-2 -6 -11 -11 -11 -21 -1 -8 8 -9 12 -1 12 7 0 15 9 18 20 9 28 19 25 31 -7
11 -28 11 -28 10 7 -1 31 -5 35 -29 35 -15 1 -27 -5 -27 -11 0 -24 -35 -74
-52 -74 -10 0 -18 -4 -18 -9 0 -5 -8 -11 -17 -15 -10 -3 -25 -10 -33 -15 -23
-14 -109 -51 -117 -50 -5 0 8 8 27 18 114 56 160 102 112 114 -14 3 -13 6 5
13 17 7 20 13 13 24 -9 13 -10 13 -10 0 -1 -12 -3 -12 -11 2 -11 20 16 58 42
58 9 0 19 9 22 20 6 23 -8 27 -17 5z m-56 -103 c-14 -5 -12 -29 3 -35 9 -4 8
-8 -3 -16 -19 -13 -33 -14 -26 -2 4 5 1 11 -6 13 -8 3 -6 14 7 36 13 22 21 28
27 19 4 -6 3 -13 -2 -15z"/>
<path d="M2980 685 c-7 -9 -11 -18 -8 -20 9 -10 35 6 35 20 0 19 -11 19 -27 0z"/>
<path d="M3666 691 c-4 -7 -5 -15 -2 -18 9 -9 19 4 14 18 -4 11 -6 11 -12 0z"/>
<path d="M3730 694 c0 -18 -42 -55 -56 -50 -7 3 -19 -3 -26 -13 -17 -23 -45
-33 -52 -18 -3 9 -7 8 -14 -2 -5 -7 -15 -10 -21 -7 -6 4 -11 2 -11 -4 0 -6 -5
-8 -10 -5 -6 4 -8 11 -5 16 4 5 -1 9 -10 9 -9 0 -13 -4 -10 -10 4 -6 -5 -10
-19 -10 -30 0 -35 24 -10 38 11 6 13 11 5 16 -14 9 -33 -2 -26 -15 4 -5 -1 -9
-9 -9 -9 0 -16 -5 -16 -11 0 -5 6 -7 13 -4 6 4 3 -1 -7 -9 -16 -13 -22 -13
-28 -3 -5 8 -8 4 -8 -10 0 -23 14 -31 24 -15 3 5 27 7 53 5 66 -4 174 15 199
35 27 23 58 71 50 79 -3 3 -6 2 -6 -3z"/>
<path d="M2915 676 c-11 -6 -22 -12 -23 -13 -2 -1 1 -9 6 -19 9 -15 11 -14 27
10 21 31 18 38 -10 22z"/>
<path d="M3641 674 c0 -11 3 -14 6 -6 3 7 2 16 -1 19 -3 4 -6 -2 -5 -13z"/>
<path d="M2823 665 c-8 -9 -9 -15 0 -24 16 -16 25 -14 38 11 10 18 9 20 -4 15
-9 -3 -17 -2 -19 3 -2 4 -8 2 -15 -5z"/>
<path d="M3129 675 c-1 -5 -1 -14 0 -19 1 -4 -4 -14 -10 -22 -7 -8 -7 -14 -1
-14 20 0 34 28 23 47 -6 10 -11 14 -12 8z"/>
<path d="M2770 661 c-8 -6 -18 -7 -23 -4 -5 3 -8 0 -5 -8 8 -23 43 -23 45 1 2
23 3 23 -17 11z"/>
<path d="M3235 659 c-4 -6 -13 -8 -20 -5 -8 3 -11 -2 -8 -13 3 -13 14 -18 34
-17 25 1 27 3 13 13 -9 6 -13 16 -9 22 3 6 4 11 1 11 -3 0 -8 -5 -11 -11z"/>
<path d="M3570 660 c0 -5 5 -10 10 -10 6 0 10 5 10 10 0 6 -4 10 -10 10 -5 0
-10 -4 -10 -10z"/>
<path d="M3600 660 c0 -5 7 -10 15 -10 8 0 15 5 15 10 0 6 -7 10 -15 10 -8 0
-15 -4 -15 -10z"/>
<path d="M3537 654 c-8 -8 1 -24 14 -24 5 0 9 7 9 15 0 15 -12 20 -23 9z"/>
<path d="M3847 653 c-4 -3 -7 -11 -7 -17 0 -6 5 -5 12 2 6 6 9 14 7 17 -3 3
-9 2 -12 -2z"/>
<path d="M3062 608 c-7 -7 -12 -19 -12 -27 0 -14 1 -14 10 -1 8 12 12 13 19 2
4 -8 17 -12 27 -9 17 4 17 6 -4 12 -14 5 -21 13 -18 21 7 17 -6 18 -22 2z"/>
<path d="M3701 604 c0 -11 3 -14 6 -6 3 7 2 16 -1 19 -3 4 -6 -2 -5 -13z"/>
<path d="M3126 602 c-3 -6 -1 -14 5 -17 14 -9 20 -2 10 14 -6 8 -11 9 -15 3z"/>
<path d="M3660 580 c0 -6 -4 -8 -10 -5 -6 3 -7 -1 -4 -9 3 -9 10 -16 14 -16
12 0 20 29 10 35 -6 4 -10 1 -10 -5z"/>
<path d="M3806 575 c-3 -9 0 -15 9 -15 16 0 20 16 6 24 -5 3 -11 -1 -15 -9z"/>
<path d="M2605 570 c3 -5 8 -10 11 -10 2 0 4 5 4 10 0 6 -5 10 -11 10 -5 0 -7
-4 -4 -10z"/>
<path d="M3570 561 c0 -6 5 -13 10 -16 6 -3 10 1 10 9 0 9 -4 16 -10 16 -5 0
-10 -4 -10 -9z"/>
<path d="M3600 556 c0 -8 5 -18 10 -21 6 -3 10 3 10 14 0 12 -4 21 -10 21 -5
0 -10 -6 -10 -14z"/>
<path d="M3476 553 c-11 -11 -6 -23 9 -23 8 0 15 4 15 9 0 13 -16 22 -24 14z"/>
<path d="M3510 550 c0 -5 5 -10 11 -10 5 0 7 5 4 10 -3 6 -8 10 -11 10 -2 0
-4 -4 -4 -10z"/>
<path d="M3540 546 c0 -8 6 -16 14 -19 10 -4 12 0 9 14 -6 22 -23 26 -23 5z"/>
<path d="M3360 535 c-7 -8 -9 -15 -5 -15 4 0 2 -6 -4 -13 -13 -16 -5 -28 15
-20 9 3 12 13 8 29 -6 22 -4 23 30 19 20 -3 36 -1 36 5 0 16 -66 12 -80 -5z"/>
<path d="M3680 540 c0 -7 -9 -9 -22 -5 -15 4 -18 3 -10 -3 9 -6 2 -12 -24 -20
-31 -9 -35 -9 -29 6 5 14 4 14 -13 -1 -22 -20 -48 -22 -55 -4 -4 9 -8 8 -16
-3 -8 -11 -13 -12 -22 -3 -9 9 -18 9 -31 2 -10 -6 -27 -7 -38 -4 -10 3 -21 1
-25 -4 -4 -7 1 -9 12 -5 16 5 15 3 -2 -11 -20 -17 -20 -17 5 -10 25 8 69 9
145 6 54 -3 68 1 110 31 22 15 32 29 26 32 -6 4 -11 2 -11 -4z"/>
<path d="M2397 461 c-7 -32 11 -87 38 -117 35 -39 45 -53 45 -64 0 -6 19 -20
43 -30 23 -11 60 -31 82 -45 43 -26 43 -26 95 -44 101 -37 257 -50 365 -31
171 29 222 43 292 82 40 21 75 43 78 48 8 14 -46 22 -61 9 -11 -9 -18 -9 -26
-1 -9 9 -15 8 -26 -1 -8 -6 -38 -12 -67 -13 -29 -1 -57 -4 -63 -8 -7 -4 -20
-3 -30 3 -11 6 -24 6 -35 -1 -10 -5 -26 -6 -35 -2 -9 4 -25 6 -35 5 -10 -1
-24 3 -32 9 -8 7 -19 9 -24 5 -6 -3 -30 0 -53 6 -24 7 -49 11 -57 10 -8 -1
-24 2 -35 7 -12 5 -48 17 -81 27 -33 10 -65 22 -71 27 -7 5 -16 8 -20 7 -14
-4 -99 35 -179 81 -110 63 -102 61 -108 31z"/>
<path d="M3501 463 c-1 -8 -12 -11 -31 -9 -33 4 -36 1 -17 -18 11 -11 16 -11
31 0 10 7 24 10 32 7 8 -3 14 0 14 7 0 6 -4 9 -9 6 -5 -4 -12 0 -14 6 -4 10
-6 10 -6 1z"/>
<path d="M3574 451 c4 -6 2 -12 -3 -12 -6 -1 -15 -3 -21 -4 -5 -1 -21 -3 -35
-4 -15 -1 -25 -7 -25 -16 0 -16 35 -13 73 7 9 5 22 6 27 3 5 -3 11 -1 15 4 3
6 -4 15 -16 21 -15 8 -19 9 -15 1z"/>
<path d="M3340 443 c0 -15 18 -35 23 -27 3 5 -1 15 -9 22 -8 7 -14 9 -14 5z"/>
<path d="M3385 440 c4 -6 11 -7 17 -4 8 5 9 -1 5 -17 -6 -23 -5 -23 8 -5 21
28 19 36 -11 36 -14 0 -23 -4 -19 -10z"/>
<path d="M3414 392 c-22 -12 -28 -12 -35 -1 -4 7 -11 10 -15 7 -3 -4 0 -14 9
-22 12 -13 17 -13 33 -2 10 8 23 12 29 10 6 -3 19 2 30 10 20 15 20 15 -2 13
-13 -1 -35 -7 -49 -15z"/>
<path d="M3560 400 c0 -5 6 -10 14 -10 8 0 18 5 21 10 3 6 -3 10 -14 10 -12 0
-21 -4 -21 -10z"/>
<path d="M3516 384 c-3 -8 1 -14 9 -14 20 0 28 17 11 23 -8 3 -17 -1 -20 -9z"/>
<path d="M2890 365 c0 -8 3 -15 6 -15 3 0 12 7 20 15 14 13 13 15 -5 15 -12 0
-21 -6 -21 -15z"/>
<path d="M3456 365 c-11 -8 -28 -13 -38 -9 -12 3 -18 0 -18 -10 0 -18 21 -21
48 -7 9 5 25 12 35 15 10 3 15 10 12 16 -8 13 -16 12 -39 -5z"/>
<path d="M3450 285 c0 -9 6 -12 15 -9 8 4 15 10 15 15 0 5 -7 9 -15 9 -8 0
-15 -7 -15 -15z"/>
</g>
</svg>
